<?xml version="1.0" encoding="UTF-8" standalone="no"?>
<!-- Created with Inkscape (http://www.inkscape.org/) -->

<svg
   version="1.1"
   id="svg32"
   width="1000"
   height="986"
   viewBox="0 0 1000 986"
   sodipodi:docname="Adidas.svg"
   inkscape:version="1.2.2 (b0a8486541, 2022-12-01)"
   xmlns:inkscape="http://www.inkscape.org/namespaces/inkscape"
   xmlns:sodipodi="http://sodipodi.sourceforge.net/DTD/sodipodi-0.dtd"
   xmlns="http://www.w3.org/2000/svg"
   xmlns:svg="http://www.w3.org/2000/svg">
  <defs
     id="defs36" />
  <sodipodi:namedview
     id="namedview34"
     pagecolor="#505050"
     bordercolor="#ffffff"
     borderopacity="1"
     inkscape:showpageshadow="0"
     inkscape:pageopacity="0"
     inkscape:pagecheckerboard="1"
     inkscape:deskcolor="#505050"
     showgrid="false"
     showguides="true"
     inkscape:zoom="0.50110781"
     inkscape:cx="184.59102"
     inkscape:cy="520.846"
     inkscape:window-width="1846"
     inkscape:window-height="1016"
     inkscape:window-x="74"
     inkscape:window-y="31"
     inkscape:window-maximized="1"
     inkscape:current-layer="layer2">
    <sodipodi:guide
       position="928.79344,59.890754"
       orientation="1,0"
       id="guide2807"
       inkscape:locked="false" />
  </sodipodi:namedview>
  <g
     inkscape:groupmode="layer"
     id="layer2"
     inkscape:label="Adidas">
    <g
       id="g2823"
       style="display:inline;fill:#000000;fill-opacity:1;stroke:none">
      <path
         style="opacity:1;fill:#000000;fill-opacity:1;stroke:none;stroke-width:0.2;stroke-dasharray:none;stroke-opacity:1"
         d="m 373.88557,423.15006 c 0,0 -44.95549,-229.58448 126.08156,-422.99077772 C 673.55138,198.82953 625.78672,422.72117 625.78672,422.72117 Z"
         id="path204"
         sodipodi:nodetypes="cccc" />
      <path
         style="opacity:1;fill:#000000;fill-opacity:1;stroke:none;stroke-width:0.2;stroke-dasharray:none;stroke-opacity:1"
         d="m 651.26146,422.48469 c 0,0 102.89286,-190.65904 348.7199,-225.49409 1.93764,129.4388 -53.04107,225.68308 -53.04107,225.68308 z"
         id="path1033"
         sodipodi:nodetypes="cccc" />
      <path
         style="opacity:1;fill:#000000;fill-opacity:1;stroke:none;stroke-width:0.2;stroke-dasharray:none;stroke-opacity:1"
         d="m 52.533416,422.81121 c 0,0 -53.36952491,-99.20121 -52.42928463,-225.92991 C 242.3091,231.31919 349.0516,422.61524 349.0516,422.61524 Z"
         id="path1761"
         sodipodi:nodetypes="cccc" />
      <path
         style="opacity:1;fill:#000000;fill-opacity:1;stroke:none;stroke-width:0.2;stroke-dasharray:none;stroke-opacity:1"
         d="m 74.044696,460.95782 851.832104,0.31379 c -12.28923,21.93117 -25.21685,37.55237 -25.21685,37.55237 L 99.35351,498.68408 C 81.151344,473.90562 74.044696,460.95782 74.044696,460.95782 Z"
         id="path1765"
         sodipodi:nodetypes="ccccc" />
      <path
         style="opacity:1;fill:#000000;fill-opacity:1;stroke:none;stroke-width:0.2;stroke-dasharray:none;stroke-opacity:1"
         d="m 130.7251,536.90195 739.20892,0.11315 c -14.67625,17.39103 -38.22023,37.73492 -38.22023,37.73492 l -662.94074,0.21844 C 139.79273,549.28737 130.7251,536.90195 130.7251,536.90195 Z"
         id="path1767"
         sodipodi:nodetypes="ccccc" />
      <path
         style="opacity:1;fill:#000000;fill-opacity:1;stroke:none;stroke-width:0.2;stroke-dasharray:none;stroke-opacity:1"
         d="m 218.56882,613.12251 202.65211,-0.0636 c 9.1486,50.09134 7.14325,82.66502 7.14325,82.66502 -120.18985,-16.09129 -209.79536,-82.6014 -209.79536,-82.6014 z"
         id="path1769"
         sodipodi:nodetypes="cccc" />
      <path
         style="opacity:1;fill:#000000;fill-opacity:1;stroke:none;stroke-width:0.2;stroke-dasharray:none;stroke-opacity:1"
         d="m 437.42217,613.08755 125.11914,0.0675 c -28.7225,54.44778 -62.34937,89.86777 -62.34937,89.86777 -35.59135,-40.93157 -62.76977,-89.93526 -62.76977,-89.93526 z"
         id="path1773"
         sodipodi:nodetypes="cccc" />
      <path
         style="opacity:1;fill:#000000;fill-opacity:1;stroke:none;stroke-width:0.2;stroke-dasharray:none;stroke-opacity:1"
         d="m 578.34534,612.98308 203.66493,-0.0397 c -100.1032,71.3918 -210.51303,83.21993 -210.51303,83.21993 0.12333,-42.92824 6.8481,-83.18027 6.8481,-83.18027 z"
         id="path1777"
         sodipodi:nodetypes="cccc" />
      <path
         id="path1839"
         style="opacity:1;fill:#000000;fill-opacity:1;stroke:none;stroke-width:1;stroke-dasharray:none;stroke-opacity:1"
         d="M 87.708984,811.10938 A 87.279854,87.279854 0 0 0 0.42773438,898.39062 87.279854,87.279854 0 0 0 87.708984,985.66992 87.279854,87.279854 0 0 0 137.80859,969.63477 v 13.31835 h 41.92188 V 813.49023 h -41.92188 v 13.46289 A 87.279854,87.279854 0 0 0 87.708984,811.10938 Z m 1.832032,38.36328 A 48.776325,48.776325 0 0 1 138.31641,898.25 48.776325,48.776325 0 0 1 89.541016,947.02539 48.776325,48.776325 0 0 1 40.763672,898.25 48.776325,48.776325 0 0 1 89.541016,849.47266 Z" />
      <path
         id="path1839-7"
         style="opacity:1;fill:#000000;fill-opacity:1;stroke:none;stroke-width:1;stroke-dasharray:none;stroke-opacity:1"
         d="m 740.82504,810.95307 a 87.279854,87.279854 0 0 0 -87.28125,87.28124 87.279854,87.279854 0 0 0 87.28125,87.2793 87.279854,87.279854 0 0 0 50.0996,-16.03515 v 13.31835 h 41.92188 V 813.33392 h -41.92188 v 13.46289 a 87.279854,87.279854 0 0 0 -50.0996,-15.84374 z m 1.83203,38.36328 a 48.776325,48.776325 0 0 1 48.77539,48.77734 48.776325,48.776325 0 0 1 -48.77539,48.77539 48.776325,48.776325 0 0 1 -48.77734,-48.77539 48.776325,48.776325 0 0 1 48.77734,-48.77734 z" />
      <path
         id="path1954"
         style="opacity:1;fill:#000000;fill-opacity:1;stroke:none;stroke-width:0.342269;stroke-dasharray:none;stroke-opacity:1"
         d="m 334.30273,755.61719 v 71.20703 a 87.670547,87.670547 0 0 0 -50.21679,-15.83984 87.670547,87.670547 0 0 0 -87.67188,87.66992 87.670547,87.670547 0 0 0 87.67188,87.67187 87.670547,87.670547 0 0 0 50.21679,-16.02734 v 12.81055 h 42.52149 V 755.61719 Z m -48.11328,94.92578 a 48.208324,48.208324 0 0 1 48.20899,48.20898 48.208324,48.208324 0 0 1 -48.20899,48.20899 48.208324,48.208324 0 0 1 -48.20703,-48.20899 48.208324,48.208324 0 0 1 48.20703,-48.20898 z" />
      <path
         id="path1954-6"
         style="opacity:1;fill:#000000;fill-opacity:1;stroke:none;stroke-width:0.342269;stroke-dasharray:none;stroke-opacity:1"
         d="m 593.99359,755.48812 v 71.20703 a 87.670547,87.670547 0 0 0 -50.21679,-15.83984 87.670547,87.670547 0 0 0 -87.67188,87.66992 87.670547,87.670547 0 0 0 87.67188,87.67187 87.670547,87.670547 0 0 0 50.21679,-16.02734 v 12.81055 h 42.52149 V 755.48812 Z m -48.11328,94.92578 a 48.208324,48.208324 0 0 1 48.20899,48.20898 48.208324,48.208324 0 0 1 -48.20899,48.20899 48.208324,48.208324 0 0 1 -48.20703,-48.20899 48.208324,48.208324 0 0 1 48.20703,-48.20898 z" />
      <path
         id="rect1992"
         style="opacity:1;fill:#000000;fill-opacity:1;stroke:none;stroke-width:0.4;stroke-dasharray:none;stroke-opacity:1"
         d="m 396.48828,755.3457 v 42.54688 H 439.0332 V 755.3457 Z m -0.38476,57.42774 v 169.43164 h 43.17187 V 812.77344 Z" />
      <path
         style="opacity:1;fill:#000000;fill-opacity:1;stroke:none;stroke-width:0.4;stroke-dasharray:none;stroke-opacity:1"
         d="m 993.83536,865.96936 c 0,0 -26.71684,0.0208 -42.5075,0.009 -1.6326,-17.95504 -17.56402,-23.21012 -30.17105,-23.21914 -10.51903,-0.008 -25.9803,2.76696 -25.93423,15.23936 0.0331,8.95059 4.0158,14.45954 33.72986,18.99225 43.2966,6.60464 71.09086,16.10793 71.26426,52.2978 0.1162,24.25526 -16.39831,56.5324 -71.43249,56.36166 -7.8026,-0.0242 -79.01758,0.33343 -80.25964,-58.64262 14.42993,-0.28067 29.20018,-0.2098 42.98955,-0.0234 2.37251,22.52047 21.70953,26.88839 37.29113,26.91648 14.17187,0.0255 26.25979,-6.47379 26.28232,-16.91045 0.0236,-10.9095 -12.70605,-16.17968 -26.21414,-17.43131 -7.4901,-0.69402 -35.41368,-5.53194 -46.87317,-9.70912 -16.30476,-5.94337 -30.504,-16.77937 -30.39529,-44.9585 0.083,-21.52425 19.49444,-54.1667 69.76754,-54.38368 59.1268,-0.25519 72.42987,41.93649 72.46285,55.46203 0.0366,15.02104 0,2e-5 0,2e-5 z"
         id="path2805"
         sodipodi:nodetypes="ccsssssccsssssssc" />
    </g>
  </g>
</svg>
