<?xml version="1.0" encoding="UTF-8" standalone="no"?>
<!-- Created with Inkscape (http://www.inkscape.org/) -->

<svg
   width="95mm"
   height="65mm"
   viewBox="0 0 359.05512 245.6693"
   version="1.1"
   id="svg5"
   xml:space="preserve"
   inkscape:version="1.2.2 (b0a8486541, 2022-12-01)"
   sodipodi:docname="card_v4.svg"
   xmlns:inkscape="http://www.inkscape.org/namespaces/inkscape"
   xmlns:sodipodi="http://sodipodi.sourceforge.net/DTD/sodipodi-0.dtd"
   xmlns="http://www.w3.org/2000/svg"
   xmlns:svg="http://www.w3.org/2000/svg"><sodipodi:namedview
     id="namedview7"
     pagecolor="#ffffff"
     bordercolor="#999999"
     borderopacity="1"
     inkscape:showpageshadow="0"
     inkscape:pageopacity="0"
     inkscape:pagecheckerboard="0"
     inkscape:deskcolor="#d1d1d1"
     inkscape:document-units="mm"
     showgrid="false"
     showguides="true"
     inkscape:zoom="2.7050303"
     inkscape:cx="134.37927"
     inkscape:cy="112.01353"
     inkscape:window-width="1846"
     inkscape:window-height="1016"
     inkscape:window-x="74"
     inkscape:window-y="31"
     inkscape:window-maximized="1"
     inkscape:current-layer="layer1"><sodipodi:guide
       position="37.795276,170.07873"
       orientation="-1,0"
       id="guide2138"
       inkscape:locked="false"
       inkscape:label=""
       inkscape:color="rgb(0,134,229)" /><sodipodi:guide
       position="321.25985,170.07873"
       orientation="-1,0"
       id="guide2190"
       inkscape:locked="false"
       inkscape:label=""
       inkscape:color="rgb(0,134,229)" /><sodipodi:guide
       position="113.38583,207.87402"
       orientation="0,1"
       id="guide2192"
       inkscape:locked="false"
       inkscape:label=""
       inkscape:color="rgb(0,134,229)" /><sodipodi:guide
       position="113.38583,37.795276"
       orientation="0,1"
       id="guide2194"
       inkscape:locked="false"
       inkscape:label=""
       inkscape:color="rgb(0,134,229)" /><sodipodi:guide
       position="179.52756,279.68347"
       orientation="-1,0"
       id="guide862"
       inkscape:locked="false"
       inkscape:label=""
       inkscape:color="rgb(0,134,229)" /><sodipodi:guide
       position="-44.601375,122.83465"
       orientation="0,1"
       id="guide1590"
       inkscape:locked="false"
       inkscape:label=""
       inkscape:color="rgb(0,134,229)" /></sodipodi:namedview><defs
     id="defs2"><rect
       x="18.84745"
       y="21.753326"
       width="149.44963"
       height="79.613518"
       id="rect15838" /><rect
       x="22.821062"
       y="42.339329"
       width="149.26295"
       height="56.167118"
       id="rect10738" /><rect
       x="22.303638"
       y="23.254602"
       width="137.94078"
       height="71.618027"
       id="rect4556" /><rect
       x="23.054705"
       y="22.908794"
       width="130.33131"
       height="73.503311"
       id="rect4550" /></defs><g
     inkscape:label="Layer 1"
     inkscape:groupmode="layer"
     id="layer1"><rect
       style="fill:#ffffff;fill-opacity:1;stroke-width:0.427047;stroke-dasharray:none"
       id="rect8786"
       width="359.05511"
       height="245.6693"
       x="0"
       y="0"
       inkscape:transform-center-x="-97.67741"
       inkscape:transform-center-y="-39.822693" /><g
       aria-label="adidas AG Herzogenaurach, NemÄija adidas.com"
       transform="matrix(1.0233432,0,0,1.0334771,13.288907,-82.827768)"
       id="text3165"
       style="font-size:11.1164px;font-family:'ITC Avant Garde Gothic Std';-inkscape-font-specification:'ITC Avant Garde Gothic Std';white-space:pre;shape-inside:url(#rect3167);fill:#000000;fill-opacity:1;stroke-width:1.0003;stroke-dasharray:none"
       inkscape:transform-center-x="-4.9019516"
       inkscape:transform-center-y="-100.26017"><path
         d="m 30.383753,125.08639 v -6.08067 h -0.778148 v 1.06717 h -0.02223 c -0.522471,-0.82261 -1.411783,-1.2228 -2.367793,-1.2228 -1.78974,0 -3.268221,1.3562 -3.268221,3.17929 0,1.8342 1.445132,3.20152 3.268221,3.20152 0.944894,0 1.834206,-0.4113 2.367793,-1.21169 h 0.02223 v 1.06718 z m -0.733682,-3.03478 c 0,1.3562 -1.056058,2.47896 -2.434492,2.47896 -1.422899,0 -2.490073,-1.04494 -2.490073,-2.46784 0,-1.43402 1.044941,-2.51231 2.490073,-2.51231 1.378434,0 2.434492,1.14499 2.434492,2.50119 z"
         id="path6232"
         style="fill:#000000;fill-opacity:1;stroke-width:1.0003;stroke-dasharray:none" /><path
         d="m 37.942911,125.08639 v -8.22614 h -0.778148 v 3.19041 h -0.02223 c -0.533587,-0.77815 -1.434015,-1.20057 -2.367793,-1.20057 -1.78974,0 -3.268221,1.3562 -3.268221,3.17929 0,1.8342 1.445132,3.20152 3.268221,3.20152 0.922661,0 1.845323,-0.43354 2.367793,-1.21169 h 0.02223 v 1.06718 z m -0.733682,-3.03478 c 0,1.3562 -1.056058,2.47896 -2.434492,2.47896 -1.422899,0 -2.490073,-1.04494 -2.490073,-2.46784 0,-1.43402 1.044941,-2.51231 2.490073,-2.51231 1.378434,0 2.434492,1.14499 2.434492,2.50119 z"
         id="path6234"
         style="fill:#000000;fill-opacity:1;stroke-width:1.0003;stroke-dasharray:none" /><path
         d="m 40.188418,118.26092 v -1.40067 H 39.41027 v 1.40067 z m 0,6.82547 v -6.08067 H 39.41027 v 6.08067 z"
         id="path6236"
         style="fill:#000000;fill-opacity:1;stroke-width:1.0003;stroke-dasharray:none" /><path
         d="m 47.780927,125.08639 v -8.22614 h -0.778148 v 3.19041 h -0.02223 c -0.533587,-0.77815 -1.434016,-1.20057 -2.367793,-1.20057 -1.789741,0 -3.268222,1.3562 -3.268222,3.17929 0,1.8342 1.445132,3.20152 3.268222,3.20152 0.922661,0 1.845322,-0.43354 2.367793,-1.21169 h 0.02223 v 1.06718 z m -0.733683,-3.03478 c 0,1.3562 -1.056058,2.47896 -2.434491,2.47896 -1.422899,0 -2.490074,-1.04494 -2.490074,-2.46784 0,-1.43402 1.044942,-2.51231 2.490074,-2.51231 1.378433,0 2.434491,1.14499 2.434491,2.50119 z"
         id="path6238"
         style="fill:#000000;fill-opacity:1;stroke-width:1.0003;stroke-dasharray:none" /><path
         d="m 55.429005,125.08639 v -6.08067 h -0.778148 v 1.06717 h -0.02223 c -0.522471,-0.82261 -1.411783,-1.2228 -2.367793,-1.2228 -1.78974,0 -3.268222,1.3562 -3.268222,3.17929 0,1.8342 1.445132,3.20152 3.268222,3.20152 0.944894,0 1.834206,-0.4113 2.367793,-1.21169 h 0.02223 v 1.06718 z m -0.733683,-3.03478 c 0,1.3562 -1.056058,2.47896 -2.434491,2.47896 -1.422899,0 -2.490074,-1.04494 -2.490074,-2.46784 0,-1.43402 1.044942,-2.51231 2.490074,-2.51231 1.378433,0 2.434491,1.14499 2.434491,2.50119 z"
         id="path6240"
         style="fill:#000000;fill-opacity:1;stroke-width:1.0003;stroke-dasharray:none" /><path
         d="m 60.164598,123.37446 c 0,-2.24551 -2.823565,-1.52294 -2.823565,-2.91249 0,-0.52247 0.40019,-0.91155 0.922661,-0.91155 0.55582,0 0.878196,0.43354 0.911545,0.95601 h 0.778148 c 0,-0.93378 -0.722566,-1.65634 -1.656344,-1.65634 -0.989359,0 -1.734158,0.68922 -1.734158,1.68969 0,2.0343 2.823565,1.2895 2.823565,2.90138 0,0.70033 -0.444656,1.08941 -1.133872,1.08941 -0.744799,0 -1.078291,-0.5447 -1.089408,-1.24504 h -0.778147 v 0.0667 c 0,1.08941 0.778147,1.87867 1.867555,1.87867 1.144989,0 1.91202,-0.68921 1.91202,-1.85644 z"
         id="path6242"
         style="fill:#000000;fill-opacity:1;stroke-width:1.0003;stroke-dasharray:none" /><path
         d="m 71.614498,125.08639 -3.535015,-8.22614 h -0.922661 l -3.512782,8.22614 h 0.855963 l 1.200571,-2.76798 h 3.824041 l 1.189455,2.76798 z m -2.412258,-3.51278 h -3.190407 l 1.611878,-3.77958 z"
         id="path6244"
         style="fill:#000000;fill-opacity:1;stroke-width:1.0003;stroke-dasharray:none" /><path
         d="m 80.941157,121.30681 h -5.580432 v 0.7448 h 4.591073 c -0.366842,1.43402 -1.878672,2.43449 -3.323804,2.43449 -1.956486,0 -3.623946,-1.51183 -3.623946,-3.50166 0,-1.96761 1.645227,-3.5239 3.590597,-3.5239 1.133873,0 2.34556,0.58917 2.923613,1.58964 h 0.95601 c -0.12228,-0.30014 -0.322375,-0.58917 -0.533587,-0.82261 -0.844846,-0.96713 -2.078766,-1.51183 -3.357152,-1.51183 -2.356677,0 -4.402095,1.85644 -4.402095,4.25758 0,2.37891 2.078767,4.25758 4.413211,4.25758 2.234396,0 4.16865,-1.66746 4.346512,-3.92409 z"
         id="path6246"
         style="fill:#000000;fill-opacity:1;stroke-width:1.0003;stroke-dasharray:none" /><path
         d="m 30.228123,139.48075 v -8.22614 H 29.40551 v 3.62395 h -4.257581 v -3.62395 h -0.822614 v 8.22614 h 0.822614 v -3.85739 h 4.257581 v 3.85739 z"
         id="path6248"
         style="fill:#000000;fill-opacity:1;stroke-width:1.0003;stroke-dasharray:none" /><path
         d="m 37.842864,136.50155 c 0,-1.75639 -1.411783,-3.2571 -3.190407,-3.2571 -1.745275,0 -3.157058,1.46736 -3.157058,3.20152 0,1.74527 1.411783,3.17929 3.168174,3.17929 1.345085,0 2.545656,-0.86708 2.990312,-2.13435 h -0.822614 c -0.333492,0.90043 -1.245037,1.43402 -2.178814,1.43402 -1.189455,0 -2.301095,-1.00048 -2.356677,-2.20105 h 5.535967 c 0,-0.0778 0.01112,-0.14451 0.01112,-0.22233 z m -0.800381,-0.478 H 32.29578 c 0.188979,-1.18946 1.156106,-2.07877 2.367793,-2.07877 1.222804,0 2.178815,0.88931 2.37891,2.07877 z"
         id="path6250"
         style="fill:#000000;fill-opacity:1;stroke-width:1.0003;stroke-dasharray:none" /><path
         d="m 41.533504,134.06706 v -0.82261 c -0.789264,0.0556 -1.378434,0.25567 -1.711926,1.03382 h -0.02223 v -0.87819 H 39.0212 v 6.08067 h 0.778148 v -3.55725 c 0,-1.08941 0.666984,-1.76751 1.734158,-1.85644 z"
         id="path6252"
         style="fill:#000000;fill-opacity:1;stroke-width:1.0003;stroke-dasharray:none" /><path
         d="m 46.25798,139.48075 v -0.70034 h -3.535015 l 3.33492,-4.68 v -0.70033 h -4.190883 v 0.70033 h 3.257105 l -3.368269,4.70224 v 0.6781 z"
         id="path6254"
         style="fill:#000000;fill-opacity:1;stroke-width:1.0003;stroke-dasharray:none" /><path
         d="m 53.194606,136.43485 c 0,-1.73415 -1.456248,-3.1904 -3.190406,-3.1904 -1.767508,0 -3.168174,1.47848 -3.168174,3.23487 0,1.71192 1.456248,3.14594 3.168174,3.14594 1.745274,0 3.190406,-1.44513 3.190406,-3.19041 z m -0.778148,-0.0334 c 0,1.36732 -1.000476,2.52343 -2.401142,2.52343 -1.345084,0 -2.401142,-1.13388 -2.401142,-2.45673 0,-1.34508 1.022708,-2.52342 2.401142,-2.52342 1.333968,0 2.401142,1.13387 2.401142,2.45672 z"
         id="path6256"
         style="fill:#000000;fill-opacity:1;stroke-width:1.0003;stroke-dasharray:none" /><path
         d="m 60.386923,138.52474 v -5.12466 h -0.778148 v 1.0894 h -0.02223 c -0.52247,-0.81149 -1.38955,-1.24503 -2.34556,-1.24503 -1.778624,0 -3.17929,1.45625 -3.17929,3.22375 0,1.76751 1.422899,3.15706 3.17929,3.15706 0.922661,0 1.900904,-0.41131 2.34556,-1.25615 h 0.02223 v 0.53358 c 0,1.35621 -0.83373,2.26775 -2.201047,2.26775 -1.056058,0 -1.889788,-0.55582 -2.278862,-1.53406 h -0.822614 c 0.422424,1.44513 1.645228,2.23439 3.112592,2.23439 0.911545,0 1.856439,-0.38907 2.412259,-1.12275 0.500238,-0.66699 0.55582,-1.4229 0.55582,-2.22328 z m -0.733682,-2.07877 c 0,1.33397 -1.067175,2.47896 -2.412259,2.47896 -1.367317,0 -2.401142,-1.14499 -2.401142,-2.47896 0,-1.34508 1.033825,-2.50119 2.401142,-2.50119 1.367317,0 2.412259,1.16722 2.412259,2.50119 z"
         id="path6258"
         style="fill:#000000;fill-opacity:1;stroke-width:1.0003;stroke-dasharray:none" /><path
         d="m 67.901613,136.50155 c 0,-1.75639 -1.411783,-3.2571 -3.190407,-3.2571 -1.745275,0 -3.157057,1.46736 -3.157057,3.20152 0,1.74527 1.411782,3.17929 3.168173,3.17929 1.345085,0 2.545656,-0.86708 2.990312,-2.13435 H 66.89002 c -0.333492,0.90043 -1.245036,1.43402 -2.178814,1.43402 -1.189455,0 -2.301095,-1.00048 -2.356677,-2.20105 h 5.535967 c 0,-0.0778 0.01112,-0.14451 0.01112,-0.22233 z m -0.800381,-0.478 h -4.746703 c 0.188979,-1.18946 1.156106,-2.07877 2.367793,-2.07877 1.222804,0 2.178815,0.88931 2.37891,2.07877 z"
         id="path6260"
         style="fill:#000000;fill-opacity:1;stroke-width:1.0003;stroke-dasharray:none" /><path
         d="m 74.426938,139.48075 v -3.34604 c 0,-1.67858 -0.933778,-2.89026 -2.679052,-2.89026 -0.722566,0 -1.467365,0.31126 -1.867556,0.93377 H 69.8581 v -0.77814 h -0.77815 v 6.08067 h 0.778148 v -3.40162 c 0,-0.55582 0.144513,-1.21169 0.566936,-1.61188 0.355725,-0.33349 0.83373,-0.52247 1.322852,-0.52247 0.489121,0 0.967126,0.18898 1.322851,0.52247 0.43354,0.41131 0.578053,1.08941 0.578053,1.66746 v 3.34604 z"
         id="path6262"
         style="fill:#000000;fill-opacity:1;stroke-width:1.0003;stroke-dasharray:none" /><path
         d="m 82.041678,139.48075 v -6.08067 H 81.26353 v 1.06717 H 81.2413 c -0.522471,-0.82261 -1.411783,-1.2228 -2.367793,-1.2228 -1.789741,0 -3.268222,1.3562 -3.268222,3.17929 0,1.8342 1.445132,3.20152 3.268222,3.20152 0.944894,0 1.834206,-0.41131 2.367793,-1.21169 h 0.02223 v 1.06718 z m -0.733683,-3.03478 c 0,1.3562 -1.056058,2.47896 -2.434491,2.47896 -1.422899,0 -2.490074,-1.04494 -2.490074,-2.46784 0,-1.43402 1.044942,-2.51231 2.490074,-2.51231 1.378433,0 2.434491,1.14499 2.434491,2.50119 z"
         id="path6264"
         style="fill:#000000;fill-opacity:1;stroke-width:1.0003;stroke-dasharray:none" /><path
         d="m 88.744872,139.48075 v -6.08067 h -0.778148 v 3.21264 c 0,0.71145 -0.100047,1.31173 -0.633635,1.82309 -0.377957,0.35572 -0.778148,0.48912 -1.289502,0.48912 -1.38955,0 -1.845322,-0.92266 -1.845322,-2.17882 v -3.34603 h -0.778148 v 3.35715 c 0,0.6781 0.100047,1.41178 0.533587,1.95649 0.500238,0.63363 1.300619,0.91154 2.089883,0.91154 0.800381,0 1.589645,-0.34461 1.94537,-1.08941 h 0.02223 v 0.9449 z"
         id="path6266"
         style="fill:#000000;fill-opacity:1;stroke-width:1.0003;stroke-dasharray:none" /><path
         d="m 92.724542,134.06706 v -0.82261 c -0.789264,0.0556 -1.378433,0.25567 -1.711925,1.03382 h -0.02223 v -0.87819 h -0.778148 v 6.08067 h 0.778148 v -3.55725 c 0,-1.08941 0.666984,-1.76751 1.734158,-1.85644 z"
         id="path6268"
         style="fill:#000000;fill-opacity:1;stroke-width:1.0003;stroke-dasharray:none" /><path
         d="m 99.661181,139.48075 v -6.08067 h -0.778148 v 1.06717 H 98.8608 c -0.522471,-0.82261 -1.411783,-1.2228 -2.367793,-1.2228 -1.789741,0 -3.268222,1.3562 -3.268222,3.17929 0,1.8342 1.445132,3.20152 3.268222,3.20152 0.944894,0 1.834206,-0.41131 2.367793,-1.21169 h 0.02223 v 1.06718 z m -0.733683,-3.03478 c 0,1.3562 -1.056058,2.47896 -2.434491,2.47896 -1.422899,0 -2.490074,-1.04494 -2.490074,-2.46784 0,-1.43402 1.044942,-2.51231 2.490074,-2.51231 1.378433,0 2.434491,1.14499 2.434491,2.50119 z"
         id="path6270"
         style="fill:#000000;fill-opacity:1;stroke-width:1.0003;stroke-dasharray:none" /><path
         d="m 107.09806,137.69101 h -0.85597 c -0.42242,0.81149 -1.24503,1.23392 -2.14546,1.23392 -1.41178,0 -2.51231,-1.08941 -2.51231,-2.50119 0,-1.40067 1.12276,-2.47896 2.51231,-2.47896 0.91154,0 1.72304,0.48912 2.14546,1.2895 h 0.85597 c -0.50024,-1.24503 -1.70081,-1.98983 -3.02366,-1.98983 -1.77863,0 -3.26822,1.41178 -3.26822,3.20152 0,1.81197 1.47848,3.17929 3.26822,3.17929 1.41178,0 2.40114,-0.71145 3.02366,-1.93425 z"
         id="path6272"
         style="fill:#000000;fill-opacity:1;stroke-width:1.0003;stroke-dasharray:none" /><path
         d="m 113.57891,139.48075 v -3.34604 c 0,-1.67858 -0.93377,-2.89026 -2.67905,-2.89026 -0.72256,0 -1.46736,0.31126 -1.86755,0.93377 h -0.0222 v -2.92361 h -0.77814 v 8.22614 h 0.77814 v -3.40162 c 0,-0.55582 0.14452,-1.21169 0.56694,-1.61188 0.35573,-0.33349 0.83373,-0.52247 1.32285,-0.52247 0.48912,0 0.96713,0.18898 1.32285,0.52247 0.43354,0.41131 0.57806,1.08941 0.57806,1.66746 v 3.34604 z"
         id="path6274"
         style="fill:#000000;fill-opacity:1;stroke-width:1.0003;stroke-dasharray:none" /><path
         d="m 116.28021,138.08008 h -0.82261 l -0.97825,2.14547 h 0.82262 z"
         id="path6276"
         style="fill:#000000;fill-opacity:1;stroke-width:1.0003;stroke-dasharray:none" /><path
         d="m 30.861758,153.8751 v -8.22614 h -0.822613 v 6.82547 h -0.02223 l -4.591073,-6.82547 h -1.11164 v 8.22614 h 0.822613 v -7.23678 h 0.02223 l 4.8801,7.23678 z"
         id="path6278"
         style="fill:#000000;fill-opacity:1;stroke-width:1.0003;stroke-dasharray:none" /><path
         d="m 38.47649,150.8959 c 0,-1.75639 -1.411783,-3.2571 -3.190407,-3.2571 -1.745275,0 -3.157058,1.46736 -3.157058,3.20152 0,1.74527 1.411783,3.17929 3.168174,3.17929 1.345085,0 2.545656,-0.86708 2.990312,-2.13435 h -0.822614 c -0.333492,0.90043 -1.245037,1.43402 -2.178814,1.43402 -1.189455,0 -2.301095,-1.00048 -2.356677,-2.20105 h 5.535967 c 0,-0.0778 0.01112,-0.14451 0.01112,-0.22233 z m -0.800381,-0.478 h -4.746703 c 0.188979,-1.18946 1.156106,-2.07877 2.367793,-2.07877 1.222804,0 2.178815,0.88931 2.37891,2.07877 z"
         id="path6280"
         style="fill:#000000;fill-opacity:1;stroke-width:1.0003;stroke-dasharray:none" /><path
         d="m 48.625758,153.8751 v -3.61283 c 0,-1.4896 -0.878195,-2.62347 -2.434491,-2.62347 -0.889312,0 -1.578529,0.42242 -2.045418,1.16722 -0.422423,-0.75592 -1.178338,-1.16722 -2.045417,-1.16722 -0.666984,0 -1.289503,0.27791 -1.656344,0.85596 v -0.70034 H 39.66594 v 6.08068 h 0.778148 v -3.5239 c 0,-1.07829 0.455772,-2.01207 1.656344,-2.01207 1.200571,0 1.656343,0.93378 1.656343,2.01207 v 3.5239 h 0.778148 v -3.5239 c 0,-1.07829 0.455773,-2.01207 1.656344,-2.01207 1.200571,0 1.656343,0.93378 1.656343,2.01207 v 3.5239 z"
         id="path6282"
         style="fill:#000000;fill-opacity:1;stroke-width:1.0003;stroke-dasharray:none" /><path
         d="m 52.694358,153.98626 q -0.789265,0 -1.411783,-0.32238 -0.611402,-0.32237 -0.967127,-1.00047 -0.344608,-0.6781 -0.344608,-1.73416 0,-1.10052 0.366841,-1.78974 0.366841,-0.68922 0.98936,-1.01159 0.633634,-0.32238 1.434015,-0.32238 0.455773,0 0.878196,0.10005 0.422423,0.0889 0.689217,0.22233 l -0.300143,0.81149 q -0.266794,-0.10004 -0.622519,-0.18897 -0.355724,-0.0889 -0.666984,-0.0889 -1.756391,0 -1.756391,2.25663 0,1.07829 0.422423,1.65635 0.43354,0.56693 1.278386,0.56693 0.489122,0 0.855963,-0.10004 0.377958,-0.10005 0.689217,-0.24457 v 0.86708 q -0.300143,0.15563 -0.666984,0.23345 -0.355725,0.0889 -0.867079,0.0889 z m -0.689217,-6.8477 q -0.144513,-0.25568 -0.389074,-0.54471 -0.244561,-0.30014 -0.511354,-0.58917 -0.266794,-0.28902 -0.466889,-0.50023 v -0.14452 h 0.666984 q 0.289026,0.18898 0.600285,0.45578 0.31126,0.26679 0.58917,0.56693 0.300142,-0.30014 0.611402,-0.56693 0.311259,-0.2668 0.600285,-0.45578 h 0.689217 v 0.14452 q -0.211212,0.21121 -0.489122,0.50023 -0.266793,0.28903 -0.52247,0.58917 -0.244561,0.28903 -0.377958,0.54471 z"
         id="path6284"
         style="fill:#000000;fill-opacity:1;stroke-width:1.0003;stroke-dasharray:none" /><path
         d="m 56.196019,147.04963 v -1.40067 h -0.778148 v 1.40067 z m 0,6.82547 v -6.08068 h -0.778148 v 6.08068 z"
         id="path6286"
         style="fill:#000000;fill-opacity:1;stroke-width:1.0003;stroke-dasharray:none" /><path
         d="m 58.441541,147.04963 v -1.40067 h -0.778148 v 1.40067 z m 0,6.53644 v -5.79165 h -0.778148 v 5.65825 c 0,0.91155 -0.133397,1.75639 -1.23392,1.78974 v 0.76703 c 0.55582,-0.0111 0.911545,-0.11116 1.345084,-0.48912 0.600286,-0.52247 0.666984,-1.18945 0.666984,-1.93425 z"
         id="path6288"
         style="fill:#000000;fill-opacity:1;stroke-width:1.0003;stroke-dasharray:none" /><path
         d="m 66.078497,153.8751 v -6.08068 h -0.778148 v 1.06718 h -0.02223 c -0.52247,-0.82261 -1.411782,-1.2228 -2.367793,-1.2228 -1.78974,0 -3.268221,1.3562 -3.268221,3.17929 0,1.8342 1.445132,3.20152 3.268221,3.20152 0.944894,0 1.834206,-0.41131 2.367793,-1.21169 h 0.02223 v 1.06718 z m -0.733682,-3.03478 c 0,1.3562 -1.056058,2.47896 -2.434492,2.47896 -1.422899,0 -2.490073,-1.04495 -2.490073,-2.46785 0,-1.43401 1.044941,-2.5123 2.490073,-2.5123 1.378434,0 2.434492,1.14499 2.434492,2.50119 z"
         id="path6290"
         style="fill:#000000;fill-opacity:1;stroke-width:1.0003;stroke-dasharray:none" /><path
         d="m 30.383753,167.77059 v -6.08067 h -0.778148 v 1.06718 h -0.02223 c -0.522471,-0.82262 -1.411783,-1.22281 -2.367793,-1.22281 -1.78974,0 -3.268221,1.3562 -3.268221,3.17929 0,1.83421 1.445132,3.20153 3.268221,3.20153 0.944894,0 1.834206,-0.41131 2.367793,-1.21169 h 0.02223 v 1.06717 z m -0.733682,-3.03477 c 0,1.3562 -1.056058,2.47895 -2.434492,2.47895 -1.422899,0 -2.490073,-1.04494 -2.490073,-2.46784 0,-1.43401 1.044941,-2.5123 2.490073,-2.5123 1.378434,0 2.434492,1.14499 2.434492,2.50119 z"
         id="path6292"
         style="fill:#000000;fill-opacity:1;stroke-width:1.0003;stroke-dasharray:none" /><path
         d="m 37.942911,167.77059 v -8.22613 h -0.778148 v 3.1904 h -0.02223 c -0.533587,-0.77814 -1.434015,-1.20057 -2.367793,-1.20057 -1.78974,0 -3.268221,1.3562 -3.268221,3.17929 0,1.83421 1.445132,3.20153 3.268221,3.20153 0.922661,0 1.845323,-0.43354 2.367793,-1.21169 h 0.02223 v 1.06717 z m -0.733682,-3.03477 c 0,1.3562 -1.056058,2.47895 -2.434492,2.47895 -1.422899,0 -2.490073,-1.04494 -2.490073,-2.46784 0,-1.43401 1.044941,-2.5123 2.490073,-2.5123 1.378434,0 2.434492,1.14499 2.434492,2.50119 z"
         id="path6294"
         style="fill:#000000;fill-opacity:1;stroke-width:1.0003;stroke-dasharray:none" /><path
         d="m 40.188418,160.94512 v -1.40066 H 39.41027 v 1.40066 z m 0,6.82547 v -6.08067 H 39.41027 v 6.08067 z"
         id="path6296"
         style="fill:#000000;fill-opacity:1;stroke-width:1.0003;stroke-dasharray:none" /><path
         d="m 47.780927,167.77059 v -8.22613 h -0.778148 v 3.1904 h -0.02223 c -0.533587,-0.77814 -1.434016,-1.20057 -2.367793,-1.20057 -1.789741,0 -3.268222,1.3562 -3.268222,3.17929 0,1.83421 1.445132,3.20153 3.268222,3.20153 0.922661,0 1.845322,-0.43354 2.367793,-1.21169 h 0.02223 v 1.06717 z m -0.733683,-3.03477 c 0,1.3562 -1.056058,2.47895 -2.434491,2.47895 -1.422899,0 -2.490074,-1.04494 -2.490074,-2.46784 0,-1.43401 1.044942,-2.5123 2.490074,-2.5123 1.378433,0 2.434491,1.14499 2.434491,2.50119 z"
         id="path6298"
         style="fill:#000000;fill-opacity:1;stroke-width:1.0003;stroke-dasharray:none" /><path
         d="m 55.429005,167.77059 v -6.08067 h -0.778148 v 1.06718 h -0.02223 c -0.522471,-0.82262 -1.411783,-1.22281 -2.367793,-1.22281 -1.78974,0 -3.268222,1.3562 -3.268222,3.17929 0,1.83421 1.445132,3.20153 3.268222,3.20153 0.944894,0 1.834206,-0.41131 2.367793,-1.21169 h 0.02223 v 1.06717 z m -0.733683,-3.03477 c 0,1.3562 -1.056058,2.47895 -2.434491,2.47895 -1.422899,0 -2.490074,-1.04494 -2.490074,-2.46784 0,-1.43401 1.044942,-2.5123 2.490074,-2.5123 1.378433,0 2.434491,1.14499 2.434491,2.50119 z"
         id="path6300"
         style="fill:#000000;fill-opacity:1;stroke-width:1.0003;stroke-dasharray:none" /><path
         d="m 60.164598,166.05867 c 0,-2.24552 -2.823565,-1.52295 -2.823565,-2.9125 0,-0.52247 0.40019,-0.91154 0.922661,-0.91154 0.55582,0 0.878196,0.43354 0.911545,0.95601 h 0.778148 c 0,-0.93378 -0.722566,-1.65635 -1.656344,-1.65635 -0.989359,0 -1.734158,0.68922 -1.734158,1.6897 0,2.0343 2.823565,1.2895 2.823565,2.90138 0,0.70033 -0.444656,1.0894 -1.133872,1.0894 -0.744799,0 -1.078291,-0.5447 -1.089408,-1.24503 h -0.778147 v 0.0667 c 0,1.08941 0.778147,1.87868 1.867555,1.87868 1.144989,0 1.91202,-0.68922 1.91202,-1.85644 z"
         id="path6302"
         style="fill:#000000;fill-opacity:1;stroke-width:1.0003;stroke-dasharray:none" /><path
         d="m 62.387883,167.77059 v -1.40066 h -0.822614 v 1.40066 z"
         id="path6304"
         style="fill:#000000;fill-opacity:1;stroke-width:1.0003;stroke-dasharray:none" /><path
         d="m 70.258298,165.98085 h -0.855963 c -0.422423,0.8115 -1.245037,1.23392 -2.145465,1.23392 -1.411783,0 -2.512307,-1.0894 -2.512307,-2.50119 0,-1.40066 1.122757,-2.47895 2.512307,-2.47895 0.911545,0 1.723042,0.48912 2.145465,1.2895 h 0.855963 c -0.500238,-1.24504 -1.70081,-1.98984 -3.023661,-1.98984 -1.778624,0 -3.268222,1.41179 -3.268222,3.20153 0,1.81197 1.478482,3.17929 3.268222,3.17929 1.411783,0 2.401142,-0.71145 3.023661,-1.93426 z"
         id="path6306"
         style="fill:#000000;fill-opacity:1;stroke-width:1.0003;stroke-dasharray:none" /><path
         d="m 77.528419,164.7247 c 0,-1.73416 -1.456248,-3.19041 -3.190407,-3.19041 -1.767507,0 -3.168174,1.47848 -3.168174,3.23488 0,1.71192 1.456249,3.14594 3.168174,3.14594 1.745275,0 3.190407,-1.44514 3.190407,-3.19041 z m -0.778148,-0.0334 c 0,1.36732 -1.000476,2.52342 -2.401142,2.52342 -1.345085,0 -2.401143,-1.13387 -2.401143,-2.45672 0,-1.34509 1.022709,-2.52342 2.401143,-2.52342 1.333968,0 2.401142,1.13387 2.401142,2.45672 z"
         id="path6308"
         style="fill:#000000;fill-opacity:1;stroke-width:1.0003;stroke-dasharray:none" /><path
         d="m 87.677696,167.77059 v -3.61283 c 0,-1.48959 -0.878195,-2.62347 -2.434491,-2.62347 -0.889312,0 -1.578529,0.42243 -2.045418,1.16722 -0.422423,-0.75591 -1.178338,-1.16722 -2.045417,-1.16722 -0.666984,0 -1.289503,0.27791 -1.656344,0.85597 v -0.70034 h -0.778148 v 6.08067 h 0.778148 v -3.5239 c 0,-1.07829 0.455772,-2.01206 1.656344,-2.01206 1.200571,0 1.656343,0.93377 1.656343,2.01206 v 3.5239 h 0.778148 v -3.5239 c 0,-1.07829 0.455773,-2.01206 1.656344,-2.01206 1.200571,0 1.656343,0.93377 1.656343,2.01206 v 3.5239 z"
         id="path6310"
         style="fill:#000000;fill-opacity:1;stroke-width:1.0003;stroke-dasharray:none" /></g><g
       aria-label="Mojca Kompara vodja IT oddelka T: +386 12 345 678 mojca.k@adidas.com  "
       transform="matrix(1.0486071,0,0,1.0328598,176.85932,70.947248)"
       id="text4554"
       style="font-size:10.9419px;font-family:'ITC Avant Garde Gothic Std';-inkscape-font-specification:'ITC Avant Garde Gothic Std';white-space:pre;shape-inside:url(#rect4556);fill:#000000;fill-opacity:1;stroke-width:0.999825;stroke-dasharray:none"
       inkscape:transform-center-x="-180.64998"
       inkscape:transform-center-y="-41.677186"><path
         d="M 31.526756,32.71865 V 24.621644 H 30.27938 l -2.954313,6.893397 -2.943372,-6.893397 h -1.247376 v 8.097006 h 0.8097 v -7.210712 h 0.02188 l 3.009023,7.210712 h 0.689339 l 3.030907,-7.210712 h 0.02188 v 7.210712 z"
         id="path6115"
         style="fill:#000000;fill-opacity:1;stroke-width:0.999825;stroke-dasharray:none" /><path
         d="m 39.076675,29.720569 c 0,-1.706936 -1.433389,-3.140325 -3.140326,-3.140325 -1.739762,0 -3.118441,1.455273 -3.118441,3.184093 0,1.685053 1.433389,3.096558 3.118441,3.096558 1.717879,0 3.140326,-1.422447 3.140326,-3.140326 z m -0.765933,-0.03283 c 0,1.345853 -0.984771,2.483811 -2.363451,2.483811 -1.32397,0 -2.36345,-1.116074 -2.36345,-2.41816 0,-1.32397 1.006655,-2.483811 2.36345,-2.483811 1.313028,0 2.363451,1.116073 2.363451,2.41816 z"
         id="path6117"
         style="fill:#000000;fill-opacity:1;stroke-width:0.999825;stroke-dasharray:none" /><path
         d="m 41.024339,26.000323 v -1.378679 h -0.765933 v 1.378679 z m 0,6.433838 v -5.70073 h -0.765933 v 5.569427 c 0,0.897236 -0.131302,1.72882 -1.214551,1.761646 v 0.754991 c 0.547095,-0.01094 0.897236,-0.109419 1.32397,-0.481444 0.590863,-0.514269 0.656514,-1.170783 0.656514,-1.90389 z"
         id="path6119"
         style="fill:#000000;fill-opacity:1;stroke-width:0.999825;stroke-dasharray:none" /><path
         d="m 48.38823,30.957004 h -0.842527 c -0.415792,0.798759 -1.225492,1.214551 -2.111786,1.214551 -1.389622,0 -2.47287,-1.072306 -2.47287,-2.461928 0,-1.378679 1.105132,-2.440043 2.47287,-2.440043 0.897235,0 1.695994,0.481443 2.111786,1.26926 h 0.842527 c -0.492386,-1.225493 -1.674111,-1.9586 -2.976197,-1.9586 -1.750704,0 -3.216919,1.389621 -3.216919,3.151267 0,1.78353 1.455273,3.129384 3.216919,3.129384 1.389621,0 2.36345,-0.700282 2.976197,-1.903891 z"
         id="path6121"
         style="fill:#000000;fill-opacity:1;stroke-width:0.999825;stroke-dasharray:none" /><path
         d="m 55.620819,32.71865 v -5.985219 h -0.765933 v 1.050422 h -0.02188 c -0.514269,-0.809701 -1.389621,-1.203609 -2.330624,-1.203609 -1.761646,0 -3.216919,1.334912 -3.216919,3.129383 0,1.805414 1.422447,3.151268 3.216919,3.151268 0.930061,0 1.805413,-0.404851 2.330624,-1.192667 h 0.02188 v 1.050422 z m -0.722165,-2.987139 c 0,1.334912 -1.039481,2.440044 -2.396276,2.440044 -1.400564,0 -2.450986,-1.028539 -2.450986,-2.429102 0,-1.411505 1.028539,-2.472869 2.450986,-2.472869 1.356795,0 2.396276,1.127015 2.396276,2.461927 z"
         id="path6123"
         style="fill:#000000;fill-opacity:1;stroke-width:0.999825;stroke-dasharray:none" /><path
         d="m 65.796795,32.71865 -3.205977,-4.14698 3.205977,-3.950026 h -1.039481 l -3.709304,4.650307 h -0.02188 v -4.650307 h -0.809701 v 8.097006 h 0.809701 v -2.221206 l 1.050422,-1.291144 2.70265,3.51235 z"
         id="path6125"
         style="fill:#000000;fill-opacity:1;stroke-width:0.999825;stroke-dasharray:none" /><path
         d="m 72.077435,29.720569 c 0,-1.706936 -1.433389,-3.140325 -3.140326,-3.140325 -1.739762,0 -3.118441,1.455273 -3.118441,3.184093 0,1.685053 1.433389,3.096558 3.118441,3.096558 1.717879,0 3.140326,-1.422447 3.140326,-3.140326 z m -0.765933,-0.03283 c 0,1.345853 -0.984771,2.483811 -2.363451,2.483811 -1.32397,0 -2.36345,-1.116074 -2.36345,-2.41816 0,-1.32397 1.006655,-2.483811 2.36345,-2.483811 1.313028,0 2.363451,1.116073 2.363451,2.41816 z"
         id="path6127"
         style="fill:#000000;fill-opacity:1;stroke-width:0.999825;stroke-dasharray:none" /><path
         d="m 82.067395,32.71865 v -3.556118 c 0,-1.466214 -0.86441,-2.582288 -2.396276,-2.582288 -0.875352,0 -1.55375,0.415792 -2.01331,1.148899 -0.415792,-0.744049 -1.159841,-1.148899 -2.013309,-1.148899 -0.656514,0 -1.269261,0.273547 -1.630343,0.842526 v -0.689339 h -0.765933 v 5.985219 h 0.765933 v -3.468582 c 0,-1.061365 0.448618,-1.980484 1.630343,-1.980484 1.181725,0 1.630343,0.919119 1.630343,1.980484 v 3.468582 h 0.765933 v -3.468582 c 0,-1.061365 0.448618,-1.980484 1.630343,-1.980484 1.181725,0 1.630343,0.919119 1.630343,1.980484 v 3.468582 z"
         id="path6129"
         style="fill:#000000;fill-opacity:1;stroke-width:0.999825;stroke-dasharray:none" /><path
         d="m 89.8252,29.709627 c 0,-1.794471 -1.455272,-3.129383 -3.216918,-3.129383 -0.941004,0 -1.78353,0.426734 -2.330625,1.203609 h -0.02188 V 26.733431 H 83.48984 v 8.086064 h 0.765933 v -3.151267 h 0.02188 c 0.525211,0.765933 1.400563,1.192667 2.330625,1.192667 1.794471,0 3.216918,-1.345854 3.216918,-3.151268 z m -0.765933,0.03283 c 0,1.400563 -1.050422,2.429102 -2.450985,2.429102 -1.356796,0 -2.396277,-1.105132 -2.396277,-2.440044 0,-1.334912 1.039481,-2.461927 2.396277,-2.461927 1.422447,0 2.450985,1.061364 2.450985,2.472869 z"
         id="path6131"
         style="fill:#000000;fill-opacity:1;stroke-width:0.999825;stroke-dasharray:none" /><path
         d="M 97.046843,32.71865 V 26.733431 H 96.28091 v 1.050422 h -0.02188 c -0.514269,-0.809701 -1.389621,-1.203609 -2.330625,-1.203609 -1.761646,0 -3.216919,1.334912 -3.216919,3.129383 0,1.805414 1.422447,3.151268 3.216919,3.151268 0.930062,0 1.805414,-0.404851 2.330625,-1.192667 h 0.02188 v 1.050422 z m -0.722166,-2.987139 c 0,1.334912 -1.03948,2.440044 -2.396276,2.440044 -1.400563,0 -2.450986,-1.028539 -2.450986,-2.429102 0,-1.411505 1.028539,-2.472869 2.450986,-2.472869 1.356796,0 2.396276,1.127015 2.396276,2.461927 z"
         id="path6133"
         style="fill:#000000;fill-opacity:1;stroke-width:0.999825;stroke-dasharray:none" /><path
         d="m 100.90934,27.389945 v -0.809701 c -0.77687,0.05471 -1.356792,0.251664 -1.685049,1.017597 h -0.02188 v -0.86441 h -0.765933 v 5.985219 h 0.765933 v -3.501408 c 0,-1.072306 0.656514,-1.739762 1.706929,-1.827297 z"
         id="path6135"
         style="fill:#000000;fill-opacity:1;stroke-width:0.999825;stroke-dasharray:none" /><path
         d="m 107.7371,32.71865 v -5.985219 h -0.76594 v 1.050422 h -0.0219 c -0.51427,-0.809701 -1.38962,-1.203609 -2.33062,-1.203609 -1.76165,0 -3.21692,1.334912 -3.21692,3.129383 0,1.805414 1.42244,3.151268 3.21692,3.151268 0.93006,0 1.80541,-0.404851 2.33062,-1.192667 h 0.0219 v 1.050422 z m -0.72217,-2.987139 c 0,1.334912 -1.03948,2.440044 -2.39627,2.440044 -1.40057,0 -2.45099,-1.028539 -2.45099,-2.429102 0,-1.411505 1.02854,-2.472869 2.45099,-2.472869 1.35679,0 2.39627,1.127015 2.39627,2.461927 z"
         id="path6137"
         style="fill:#000000;fill-opacity:1;stroke-width:0.999825;stroke-dasharray:none" /><path
         d="M 28.277012,40.410806 H 27.456369 L 25.311757,45.44408 23.19997,40.410806 h -0.820642 l 2.527579,5.98522 h 0.842526 z"
         id="path6139"
         style="fill:#000000;fill-opacity:1;stroke-width:0.999825;stroke-dasharray:none" /><path
         d="m 35.082883,43.397945 c 0,-1.706936 -1.433389,-3.140325 -3.140325,-3.140325 -1.739762,0 -3.118442,1.455272 -3.118442,3.184093 0,1.685052 1.433389,3.096557 3.118442,3.096557 1.717878,0 3.140325,-1.422447 3.140325,-3.140325 z m -0.765933,-0.03283 c 0,1.345854 -0.984771,2.483812 -2.36345,2.483812 -1.32397,0 -2.363451,-1.116074 -2.363451,-2.41816 0,-1.32397 1.006655,-2.483812 2.363451,-2.483812 1.313028,0 2.36345,1.116074 2.36345,2.41816 z"
         id="path6141"
         style="fill:#000000;fill-opacity:1;stroke-width:0.999825;stroke-dasharray:none" /><path
         d="M 42.293603,46.396026 V 38.29902 H 41.52767 v 3.140325 h -0.02188 c -0.525211,-0.765933 -1.411505,-1.181725 -2.330625,-1.181725 -1.761646,0 -3.216918,1.334912 -3.216918,3.129383 0,1.805414 1.422447,3.151267 3.216918,3.151267 0.908178,0 1.816356,-0.426734 2.330625,-1.192667 h 0.02188 v 1.050423 z m -0.722166,-2.987139 c 0,1.334912 -1.03948,2.440044 -2.396276,2.440044 -1.400563,0 -2.450985,-1.028539 -2.450985,-2.429102 0,-1.411505 1.028538,-2.47287 2.450985,-2.47287 1.356796,0 2.396276,1.127016 2.396276,2.461928 z"
         id="path6143"
         style="fill:#000000;fill-opacity:1;stroke-width:0.999825;stroke-dasharray:none" /><path
         d="M 44.525745,39.677699 V 38.29902 h -0.765933 v 1.378679 z m 0,6.433837 v -5.70073 h -0.765933 v 5.569428 c 0,0.897235 -0.131303,1.72882 -1.214551,1.761645 v 0.754992 c 0.547095,-0.01094 0.897236,-0.109419 1.32397,-0.481444 0.590863,-0.514269 0.656514,-1.170783 0.656514,-1.903891 z"
         id="path6145"
         style="fill:#000000;fill-opacity:1;stroke-width:0.999825;stroke-dasharray:none" /><path
         d="m 52.04282,46.396026 v -5.98522 h -0.765933 v 1.050423 h -0.02188 c -0.514269,-0.809701 -1.389621,-1.203609 -2.330625,-1.203609 -1.761645,0 -3.216918,1.334912 -3.216918,3.129383 0,1.805414 1.422447,3.151267 3.216918,3.151267 0.930062,0 1.805414,-0.40485 2.330625,-1.192667 h 0.02188 v 1.050423 z m -0.722165,-2.987139 c 0,1.334912 -1.039481,2.440044 -2.396277,2.440044 -1.400563,0 -2.450985,-1.028539 -2.450985,-2.429102 0,-1.411505 1.028538,-2.47287 2.450985,-2.47287 1.356796,0 2.396277,1.127016 2.396277,2.461928 z"
         id="path6147"
         style="fill:#000000;fill-opacity:1;stroke-width:0.999825;stroke-dasharray:none" /><path
         d="M 57.393421,46.396026 V 38.29902 h -0.8097 v 8.097006 z"
         id="path6149"
         style="fill:#000000;fill-opacity:1;stroke-width:0.999825;stroke-dasharray:none" /><path
         d="M 62.809658,39.032127 V 38.29902 h -4.519004 v 0.733107 h 1.860123 v 7.363899 h 0.8097 v -7.363899 z"
         id="path6151"
         style="fill:#000000;fill-opacity:1;stroke-width:0.999825;stroke-dasharray:none" /><path
         d="m 72.635498,43.397945 c 0,-1.706936 -1.433389,-3.140325 -3.140325,-3.140325 -1.739762,0 -3.118442,1.455272 -3.118442,3.184093 0,1.685052 1.433389,3.096557 3.118442,3.096557 1.717878,0 3.140325,-1.422447 3.140325,-3.140325 z m -0.765933,-0.03283 c 0,1.345854 -0.984771,2.483812 -2.36345,2.483812 -1.32397,0 -2.363451,-1.116074 -2.363451,-2.41816 0,-1.32397 1.006655,-2.483812 2.363451,-2.483812 1.313028,0 2.36345,1.116074 2.36345,2.41816 z"
         id="path6153"
         style="fill:#000000;fill-opacity:1;stroke-width:0.999825;stroke-dasharray:none" /><path
         d="M 79.846216,46.396026 V 38.29902 h -0.765933 v 3.140325 h -0.02188 c -0.525211,-0.765933 -1.411505,-1.181725 -2.330625,-1.181725 -1.761645,0 -3.216918,1.334912 -3.216918,3.129383 0,1.805414 1.422447,3.151267 3.216918,3.151267 0.908178,0 1.816356,-0.426734 2.330625,-1.192667 h 0.02188 v 1.050423 z m -0.722165,-2.987139 c 0,1.334912 -1.039481,2.440044 -2.396277,2.440044 -1.400563,0 -2.450985,-1.028539 -2.450985,-2.429102 0,-1.411505 1.028538,-2.47287 2.450985,-2.47287 1.356796,0 2.396277,1.127016 2.396277,2.461928 z"
         id="path6155"
         style="fill:#000000;fill-opacity:1;stroke-width:0.999825;stroke-dasharray:none" /><path
         d="M 87.341413,46.396026 V 38.29902 H 86.57548 v 3.140325 H 86.5536 c -0.525212,-0.765933 -1.411506,-1.181725 -2.330625,-1.181725 -1.761646,0 -3.216919,1.334912 -3.216919,3.129383 0,1.805414 1.422447,3.151267 3.216919,3.151267 0.908178,0 1.816355,-0.426734 2.330625,-1.192667 h 0.02188 v 1.050423 z m -0.722165,-2.987139 c 0,1.334912 -1.039481,2.440044 -2.396276,2.440044 -1.400563,0 -2.450986,-1.028539 -2.450986,-2.429102 0,-1.411505 1.028539,-2.47287 2.450986,-2.47287 1.356795,0 2.396276,1.127016 2.396276,2.461928 z"
         id="path6157"
         style="fill:#000000;fill-opacity:1;stroke-width:0.999825;stroke-dasharray:none" /><path
         d="m 94.738134,43.463596 c 0,-1.72882 -1.389622,-3.205976 -3.140326,-3.205976 -1.717878,0 -3.107499,1.444331 -3.107499,3.151267 0,1.717878 1.389621,3.129383 3.118441,3.129383 1.32397,0 2.505695,-0.853468 2.943371,-2.100844 h -0.8097 c -0.328257,0.886294 -1.225493,1.411505 -2.144613,1.411505 -1.170783,0 -2.264973,-0.984771 -2.319683,-2.166497 h 5.449067 c 0,-0.07659 0.01094,-0.142244 0.01094,-0.218838 z m -0.787817,-0.470501 h -4.672192 c 0.186013,-1.170784 1.137958,-2.046136 2.330625,-2.046136 1.203609,0 2.144613,0.875352 2.341567,2.046136 z"
         id="path6159"
         style="fill:#000000;fill-opacity:1;stroke-width:0.999825;stroke-dasharray:none" /><path
         d="M 96.663901,46.396026 V 38.29902 h -0.765933 v 8.097006 z"
         id="path6161"
         style="fill:#000000;fill-opacity:1;stroke-width:0.999825;stroke-dasharray:none" /><path
         d="m 102.8242,46.396026 -2.48382,-2.965255 2.36346,-3.019965 h -0.98478 l -2.79018,3.654595 H 98.907 V 38.29902 h -0.765933 v 8.097006 H 98.907 v -1.137958 l 0.962887,-1.225493 1.969543,2.363451 z"
         id="path6163"
         style="fill:#000000;fill-opacity:1;stroke-width:0.999825;stroke-dasharray:none" /><path
         d="m 109.44405,46.396026 v -5.98522 h -0.76593 v 1.050423 h -0.0219 c -0.51427,-0.809701 -1.38963,-1.203609 -2.33063,-1.203609 -1.76165,0 -3.21692,1.334912 -3.21692,3.129383 0,1.805414 1.42245,3.151267 3.21692,3.151267 0.93006,0 1.80541,-0.40485 2.33063,-1.192667 h 0.0219 v 1.050423 z m -0.72216,-2.987139 c 0,1.334912 -1.03948,2.440044 -2.39628,2.440044 -1.40056,0 -2.45099,-1.028539 -2.45099,-2.429102 0,-1.411505 1.02854,-2.47287 2.45099,-2.47287 1.3568,0 2.39628,1.127016 2.39628,2.461928 z"
         id="path6165"
         style="fill:#000000;fill-opacity:1;stroke-width:0.999825;stroke-dasharray:none" /><path
         d="m 26.887391,52.709503 v -0.733108 h -4.519005 v 0.733108 h 1.860123 v 7.363899 h 0.8097 v -7.363899 z"
         id="path6167"
         style="fill:#000000;fill-opacity:1;stroke-width:0.999825;stroke-dasharray:none" /><path
         d="m 28.922593,55.45592 v -1.37868 h -0.8097 v 1.37868 z m 0,4.617482 v -1.37868 h -0.8097 v 1.37868 z"
         id="path6169"
         style="fill:#000000;fill-opacity:1;stroke-width:0.999825;stroke-dasharray:none" /><path
         d="M 39.131396,57.677125 V 56.933076 H 36.746062 V 54.5368 h -0.744049 v 2.396276 h -2.385335 v 0.744049 h 2.385335 v 2.396277 h 0.744049 v -2.396277 z"
         id="path6171"
         style="fill:#000000;fill-opacity:1;stroke-width:0.999825;stroke-dasharray:none" /><path
         d="m 45.226043,57.578648 c 0,-0.930061 -0.558037,-1.717878 -1.367737,-2.144612 0.514269,-0.40485 0.831584,-0.831585 0.831584,-1.520924 0,-1.170784 -0.86441,-2.078961 -2.046135,-2.078961 -1.247377,0 -2.01331,0.973829 -2.046136,2.166496 h 0.809701 c 0,-0.722166 0.415792,-1.433389 1.214551,-1.433389 0.744049,0 1.258318,0.547095 1.258318,1.280202 0,0.86441 -0.711223,1.269261 -1.509982,1.269261 -0.08754,0 -0.186012,-0.01094 -0.273547,-0.01094 v 0.711223 c 0.306373,0.01094 0.63463,0 0.941003,0.07659 0.787817,0.196954 1.37868,0.908177 1.37868,1.72882 0,1.03948 -0.667456,1.860123 -1.739763,1.860123 -0.63463,0 -1.192667,-0.317315 -1.520924,-0.86441 -0.207896,-0.350141 -0.251663,-0.678398 -0.284489,-1.083248 h -0.809701 c 0.04377,1.137957 0.547095,2.078961 1.652227,2.494753 0.295432,0.120361 0.63463,0.186012 0.962887,0.186012 1.477157,0 2.549463,-1.181725 2.549463,-2.636998 z"
         id="path6173"
         style="fill:#000000;fill-opacity:1;stroke-width:0.999825;stroke-dasharray:none" /><path
         d="m 51.364459,57.720893 c 0,-0.951945 -0.547095,-1.761646 -1.400563,-2.166496 0.558037,-0.306373 0.962887,-0.941004 0.962887,-1.586576 0,-1.203609 -0.941003,-2.13367 -2.144612,-2.13367 -1.192667,0 -2.144613,0.897235 -2.144613,2.100845 0,0.678397 0.393909,1.258318 0.951946,1.619401 -0.853468,0.339199 -1.389622,1.258318 -1.389622,2.166496 0,1.411505 1.214551,2.494753 2.593231,2.494753 1.378679,0 2.571346,-1.09419 2.571346,-2.494753 z M 50.117083,53.90217 c 0,0.733107 -0.601805,1.313028 -1.32397,1.313028 -0.711224,0 -1.345854,-0.590863 -1.345854,-1.313028 0,-0.754991 0.601805,-1.334912 1.356796,-1.334912 0.733107,0 1.313028,0.612746 1.313028,1.334912 z m 0.437676,3.818723 c 0,0.962887 -0.776875,1.761646 -1.750704,1.761646 -1.028539,0 -1.794472,-0.765933 -1.794472,-1.794472 0,-0.941003 0.831585,-1.717878 1.761646,-1.717878 0.973829,0 1.78353,0.765933 1.78353,1.750704 z"
         id="path6175"
         style="fill:#000000;fill-opacity:1;stroke-width:0.999825;stroke-dasharray:none" /><path
         d="m 57.612293,57.381694 c 0,-1.55375 -1.1489,-2.812068 -2.724533,-2.812068 -0.262606,0 -0.525212,0.06565 -0.754992,0.17507 l -0.02188,-0.01094 1.871065,-2.746417 h -0.91912 l -2.01331,2.976197 c -0.503327,0.744049 -0.973829,1.444331 -0.973829,2.374392 0,1.619402 1.116074,2.87772 2.768301,2.87772 1.597517,0 2.768301,-1.258318 2.768301,-2.833952 z m -0.809701,0.01094 c 0,1.127016 -0.787817,2.089903 -1.9586,2.089903 -1.137958,0 -1.9586,-0.962887 -1.9586,-2.068019 0,-1.116074 0.787817,-2.111787 1.9586,-2.111787 1.159841,0 1.9586,0.973829 1.9586,2.089903 z"
         id="path6177"
         style="fill:#000000;fill-opacity:1;stroke-width:0.999825;stroke-dasharray:none" /><path
         d="m 64.582297,60.073402 v -8.097007 h -2.199322 v 0.733108 h 1.389622 v 7.363899 z"
         id="path6179"
         style="fill:#000000;fill-opacity:1;stroke-width:0.999825;stroke-dasharray:none" /><path
         d="m 72.591777,54.296078 c 0,-0.317315 -0.07659,-0.63463 -0.196955,-0.919119 -0.40485,-0.962888 -1.26926,-1.542808 -2.319682,-1.542808 -0.350141,0 -0.700282,0.06565 -1.028539,0.196954 -1.105132,0.426734 -1.575634,1.389621 -1.575634,2.538521 v 0.02188 h 0.809701 c 0,-1.09419 0.579921,-2.024252 1.750704,-2.024252 0.941003,0 1.750704,0.765933 1.750704,1.717878 0,0.962888 -0.897236,1.706937 -1.531866,2.319683 l -2.844894,2.735475 v 0.733108 h 5.142693 V 59.34029 h -4.048503 l 2.604172,-2.483811 c 0.754991,-0.711224 1.488099,-1.455273 1.488099,-2.560405 z"
         id="path6181"
         style="fill:#000000;fill-opacity:1;stroke-width:0.999825;stroke-dasharray:none" /><path
         d="m 81.596977,57.578648 c 0,-0.930061 -0.558037,-1.717878 -1.367738,-2.144612 0.51427,-0.40485 0.831585,-0.831585 0.831585,-1.520924 0,-1.170784 -0.86441,-2.078961 -2.046136,-2.078961 -1.247376,0 -2.013309,0.973829 -2.046135,2.166496 h 0.809701 c 0,-0.722166 0.415792,-1.433389 1.21455,-1.433389 0.74405,0 1.258319,0.547095 1.258319,1.280202 0,0.86441 -0.711224,1.269261 -1.509982,1.269261 -0.08754,0 -0.186013,-0.01094 -0.273548,-0.01094 v 0.711223 c 0.306373,0.01094 0.63463,0 0.941004,0.07659 0.787817,0.196954 1.378679,0.908177 1.378679,1.72882 0,1.03948 -0.667456,1.860123 -1.739762,1.860123 -0.63463,0 -1.192667,-0.317315 -1.520924,-0.86441 -0.207896,-0.350141 -0.251664,-0.678398 -0.28449,-1.083248 h -0.8097 c 0.04377,1.137957 0.547095,2.078961 1.652227,2.494753 0.295431,0.120361 0.63463,0.186012 0.962887,0.186012 1.477157,0 2.549463,-1.181725 2.549463,-2.636998 z"
         id="path6183"
         style="fill:#000000;fill-opacity:1;stroke-width:0.999825;stroke-dasharray:none" /><path
         d="m 87.89952,58.596245 v -0.733107 h -0.733108 v -5.886743 h -0.962887 l -3.928142,5.886743 v 0.733107 h 4.081329 v 1.477157 h 0.8097 v -1.477157 z m -1.542808,-0.733107 h -3.151268 l 3.129384,-4.770669 h 0.02188 z"
         id="path6185"
         style="fill:#000000;fill-opacity:1;stroke-width:0.999825;stroke-dasharray:none" /><path
         d="m 93.983228,57.392636 c 0,-1.531866 -1.137957,-2.833952 -2.702649,-2.833952 -0.503328,0 -0.941004,0.142245 -1.37868,0.382966 l 0.404851,-2.232147 h 2.99808 v -0.733108 h -3.643652 l -0.733108,3.993794 0.63463,0.22978 c 0.404851,-0.525211 0.995713,-0.91912 1.685053,-0.91912 1.159841,0 1.925775,1.017597 1.925775,2.111787 0,1.083248 -0.809701,2.089903 -1.936717,2.089903 -1.116074,0 -1.849181,-0.897236 -1.9586,-1.9586 H 88.46851 c 0.153187,1.148899 0.700282,2.111787 1.827298,2.516637 0.295431,0.109419 0.623688,0.17507 0.941003,0.17507 1.55375,0 2.746417,-1.291144 2.746417,-2.82301 z"
         id="path6187"
         style="fill:#000000;fill-opacity:1;stroke-width:0.999825;stroke-dasharray:none" /><path
         d="m 103.07596,57.381694 c 0,-1.55375 -1.1489,-2.812068 -2.72454,-2.812068 -0.2626,0 -0.525209,0.06565 -0.754988,0.17507 l -0.02188,-0.01094 1.871058,-2.746417 h -0.91912 l -2.013303,2.976197 c -0.503327,0.744049 -0.973829,1.444331 -0.973829,2.374392 0,1.619402 1.116074,2.87772 2.768302,2.87772 1.59751,0 2.7683,-1.258318 2.7683,-2.833952 z m -0.8097,0.01094 c 0,1.127016 -0.78782,2.089903 -1.9586,2.089903 -1.137963,0 -1.958605,-0.962887 -1.958605,-2.068019 0,-1.116074 0.787817,-2.111787 1.958605,-2.111787 1.15984,0 1.9586,0.973829 1.9586,2.089903 z"
         id="path6189"
         style="fill:#000000;fill-opacity:1;stroke-width:0.999825;stroke-dasharray:none" /><path
         d="m 108.71104,52.709503 v -0.733108 h -4.68313 v 0.733108 h 3.85155 l -3.33728,7.363899 h 0.85347 z"
         id="path6191"
         style="fill:#000000;fill-opacity:1;stroke-width:0.999825;stroke-dasharray:none" /><path
         d="m 115.01359,57.720893 c 0,-0.951945 -0.5471,-1.761646 -1.40057,-2.166496 0.55804,-0.306373 0.96289,-0.941004 0.96289,-1.586576 0,-1.203609 -0.941,-2.13367 -2.14461,-2.13367 -1.19267,0 -2.14462,0.897235 -2.14462,2.100845 0,0.678397 0.39391,1.258318 0.95195,1.619401 -0.85347,0.339199 -1.38962,1.258318 -1.38962,2.166496 0,1.411505 1.21455,2.494753 2.59323,2.494753 1.37868,0 2.57135,-1.09419 2.57135,-2.494753 z m -1.24738,-3.818723 c 0,0.733107 -0.60181,1.313028 -1.32397,1.313028 -0.71122,0 -1.34585,-0.590863 -1.34585,-1.313028 0,-0.754991 0.6018,-1.334912 1.35679,-1.334912 0.73311,0 1.31303,0.612746 1.31303,1.334912 z m 0.43767,3.818723 c 0,0.962887 -0.77687,1.761646 -1.7507,1.761646 -1.02854,0 -1.79447,-0.765933 -1.79447,-1.794472 0,-0.941003 0.83158,-1.717878 1.76165,-1.717878 0.97382,0 1.78352,0.765933 1.78352,1.750704 z"
         id="path6193"
         style="fill:#000000;fill-opacity:1;stroke-width:0.999825;stroke-dasharray:none" /><path
         d="M 31.844071,73.750777 V 70.19466 c 0,-1.466215 -0.86441,-2.582289 -2.396276,-2.582289 -0.875352,0 -1.55375,0.415793 -2.013309,1.1489 -0.415793,-0.744049 -1.159842,-1.1489 -2.01331,-1.1489 -0.656514,0 -1.26926,0.273548 -1.630343,0.842527 v -0.68934 H 23.0249 v 5.985219 h 0.765933 v -3.468582 c 0,-1.061364 0.448618,-1.980484 1.630343,-1.980484 1.181725,0 1.630343,0.91912 1.630343,1.980484 v 3.468582 h 0.765933 v -3.468582 c 0,-1.061364 0.448618,-1.980484 1.630343,-1.980484 1.181725,0 1.630343,0.91912 1.630343,1.980484 v 3.468582 z"
         id="path6195"
         style="fill:#000000;fill-opacity:1;stroke-width:0.999825;stroke-dasharray:none" /><path
         d="m 39.28456,70.752697 c 0,-1.706937 -1.433389,-3.140326 -3.140325,-3.140326 -1.739762,0 -3.118442,1.455273 -3.118442,3.184093 0,1.685053 1.433389,3.096558 3.118442,3.096558 1.717878,0 3.140325,-1.422447 3.140325,-3.140325 z m -0.765933,-0.03283 c 0,1.345854 -0.984771,2.483811 -2.36345,2.483811 -1.32397,0 -2.363451,-1.116073 -2.363451,-2.41816 0,-1.32397 1.006655,-2.483811 2.363451,-2.483811 1.313028,0 2.36345,1.116074 2.36345,2.41816 z"
         id="path6197"
         style="fill:#000000;fill-opacity:1;stroke-width:0.999825;stroke-dasharray:none" /><path
         d="m 41.232225,67.032451 v -1.37868 h -0.765933 v 1.37868 z m 0,6.433837 v -5.70073 h -0.765933 v 5.569427 c 0,0.897236 -0.131303,1.72882 -1.214551,1.761646 v 0.754991 c 0.547095,-0.01094 0.897236,-0.109419 1.32397,-0.481443 0.590863,-0.51427 0.656514,-1.170784 0.656514,-1.903891 z"
         id="path6199"
         style="fill:#000000;fill-opacity:1;stroke-width:0.999825;stroke-dasharray:none" /><path
         d="m 48.596115,71.989131 h -0.842526 c -0.415792,0.798759 -1.225493,1.214551 -2.111787,1.214551 -1.389621,0 -2.472869,-1.072306 -2.472869,-2.461927 0,-1.37868 1.105132,-2.440044 2.472869,-2.440044 0.897236,0 1.695995,0.481444 2.111787,1.26926 h 0.842526 c -0.492385,-1.225492 -1.67411,-1.9586 -2.976196,-1.9586 -1.750705,0 -3.216919,1.389622 -3.216919,3.151268 0,1.783529 1.455273,3.129383 3.216919,3.129383 1.389621,0 2.36345,-0.700282 2.976196,-1.903891 z"
         id="path6201"
         style="fill:#000000;fill-opacity:1;stroke-width:0.999825;stroke-dasharray:none" /><path
         d="m 55.828705,73.750777 v -5.985219 h -0.765933 v 1.050422 h -0.02188 c -0.514269,-0.8097 -1.389621,-1.203609 -2.330625,-1.203609 -1.761646,0 -3.216918,1.334912 -3.216918,3.129384 0,1.805413 1.422447,3.151267 3.216918,3.151267 0.930062,0 1.805414,-0.40485 2.330625,-1.192667 h 0.02188 v 1.050422 z M 55.10654,70.763639 c 0,1.334911 -1.039481,2.440043 -2.396277,2.440043 -1.400563,0 -2.450985,-1.028538 -2.450985,-2.429102 0,-1.411505 1.028538,-2.472869 2.450985,-2.472869 1.356796,0 2.396277,1.127016 2.396277,2.461928 z"
         id="path6203"
         style="fill:#000000;fill-opacity:1;stroke-width:0.999825;stroke-dasharray:none" /><path
         d="m 58.432881,73.750777 v -1.378679 h -0.8097 v 1.378679 z"
         id="path6205"
         style="fill:#000000;fill-opacity:1;stroke-width:0.999825;stroke-dasharray:none" /><path
         d="m 64.987084,73.750777 -2.483812,-2.965255 2.363451,-3.019964 h -0.984771 l -2.790185,3.654595 h -0.02188 V 65.653771 H 60.30395 v 8.097006 h 0.765933 V 72.61282 l 0.962888,-1.225493 1.969542,2.36345 z"
         id="path6207"
         style="fill:#000000;fill-opacity:1;stroke-width:0.999825;stroke-dasharray:none" /><path
         d="m 73.817207,69.111412 c 0,-2.210264 -1.597518,-3.599886 -3.753072,-3.599886 -2.505695,0 -4.322051,1.761646 -4.322051,4.278283 0,0.601805 0.109419,1.203609 0.350141,1.750704 0.722166,1.652227 2.264974,2.352509 4.004736,2.352509 0.951945,0 1.90389,-0.196954 2.7683,-0.601804 l -0.164128,-0.558037 c -0.820643,0.372024 -1.695995,0.547095 -2.604172,0.547095 -2.199322,0 -3.698363,-1.345854 -3.698363,-3.56706 0,-2.068019 1.509983,-3.588943 3.578002,-3.588943 1.827297,0 3.184093,1.105132 3.184093,2.998081 0,0.284489 -0.03283,0.558036 -0.08753,0.831584 -0.131303,0.568979 -0.525212,1.477156 -1.214551,1.477156 -0.251664,0 -0.372025,-0.229779 -0.372025,-0.448617 0,-0.207897 0.06565,-0.426735 0.09848,-0.634631 l 0.45956,-2.59323 h -0.656514 l -0.153187,0.820643 h -0.02188 c -0.196955,-0.656514 -0.678398,-0.97383 -1.356796,-0.97383 -1.313028,0 -2.133671,1.258319 -2.133671,2.47287 0,1.017597 0.601805,1.969542 1.706937,1.969542 0.667456,0 1.159841,-0.306373 1.509982,-0.875352 h 0.02188 c 0.02188,0.514269 0.350141,0.875352 0.875352,0.875352 0.973829,0 1.608459,-1.039481 1.838239,-1.871065 0.09848,-0.339199 0.142245,-0.700282 0.142245,-1.061364 z m -2.82301,0.328257 c 0,0.853468 -0.426735,1.991425 -1.433389,1.991425 -0.809701,0 -1.181726,-0.623688 -1.181726,-1.378679 0,-0.886294 0.547095,-1.838239 1.531866,-1.838239 0.68934,0 1.083249,0.579921 1.083249,1.225493 z"
         id="path6209"
         style="fill:#000000;fill-opacity:1;stroke-width:0.999825;stroke-dasharray:none" /><path
         d="m 81.312414,73.750777 v -5.985219 h -0.765933 v 1.050422 h -0.02188 c -0.514269,-0.8097 -1.389621,-1.203609 -2.330624,-1.203609 -1.761646,0 -3.216919,1.334912 -3.216919,3.129384 0,1.805413 1.422447,3.151267 3.216919,3.151267 0.930061,0 1.805413,-0.40485 2.330624,-1.192667 h 0.02188 v 1.050422 z m -0.722165,-2.987138 c 0,1.334911 -1.039481,2.440043 -2.396276,2.440043 -1.400564,0 -2.450986,-1.028538 -2.450986,-2.429102 0,-1.411505 1.028539,-2.472869 2.450986,-2.472869 1.356795,0 2.396276,1.127016 2.396276,2.461928 z"
         id="path6211"
         style="fill:#000000;fill-opacity:1;stroke-width:0.999825;stroke-dasharray:none" /><path
         d="m 88.752916,73.750777 v -8.097006 h -0.765933 v 3.140326 h -0.02188 c -0.525211,-0.765933 -1.411505,-1.181726 -2.330624,-1.181726 -1.761646,0 -3.216919,1.334912 -3.216919,3.129384 0,1.805413 1.422447,3.151267 3.216919,3.151267 0.908177,0 1.816355,-0.426734 2.330624,-1.192667 h 0.02188 v 1.050422 z m -0.722165,-2.987138 c 0,1.334911 -1.039481,2.440043 -2.396276,2.440043 -1.400564,0 -2.450986,-1.028538 -2.450986,-2.429102 0,-1.411505 1.028539,-2.472869 2.450986,-2.472869 1.356795,0 2.396276,1.127016 2.396276,2.461928 z"
         id="path6213"
         style="fill:#000000;fill-opacity:1;stroke-width:0.999825;stroke-dasharray:none" /><path
         d="m 90.963172,67.032451 v -1.37868 h -0.765933 v 1.37868 z m 0,6.718326 v -5.985219 h -0.765933 v 5.985219 z"
         id="path6215"
         style="fill:#000000;fill-opacity:1;stroke-width:0.999825;stroke-dasharray:none" /><path
         d="m 98.436502,73.750777 v -8.097006 h -0.765933 v 3.140326 h -0.02188 c -0.525211,-0.765933 -1.411505,-1.181726 -2.330624,-1.181726 -1.761646,0 -3.216919,1.334912 -3.216919,3.129384 0,1.805413 1.422447,3.151267 3.216919,3.151267 0.908177,0 1.816355,-0.426734 2.330624,-1.192667 h 0.02188 v 1.050422 z m -0.722165,-2.987138 c 0,1.334911 -1.039481,2.440043 -2.396276,2.440043 -1.400563,0 -2.450986,-1.028538 -2.450986,-2.429102 0,-1.411505 1.028539,-2.472869 2.450986,-2.472869 1.356795,0 2.396276,1.127016 2.396276,2.461928 z"
         id="path6217"
         style="fill:#000000;fill-opacity:1;stroke-width:0.999825;stroke-dasharray:none" /><path
         d="m 105.96452,73.750777 v -5.985219 h -0.76593 v 1.050422 h -0.0219 c -0.51426,-0.8097 -1.38962,-1.203609 -2.33062,-1.203609 -1.76165,0 -3.216919,1.334912 -3.216919,3.129384 0,1.805413 1.422449,3.151267 3.216919,3.151267 0.93006,0 1.80541,-0.40485 2.33062,-1.192667 h 0.0219 v 1.050422 z m -0.72216,-2.987138 c 0,1.334911 -1.03948,2.440043 -2.39628,2.440043 -1.40056,0 -2.45099,-1.028538 -2.45099,-2.429102 0,-1.411505 1.02854,-2.472869 2.45099,-2.472869 1.3568,0 2.39628,1.127016 2.39628,2.461928 z"
         id="path6219"
         style="fill:#000000;fill-opacity:1;stroke-width:0.999825;stroke-dasharray:none" /><path
         d="m 110.62577,72.065725 c 0,-2.210264 -2.77924,-1.499041 -2.77924,-2.866778 0,-0.514269 0.39391,-0.897236 0.90818,-0.897236 0.54709,0 0.86441,0.426734 0.89723,0.941003 h 0.76594 c 0,-0.919119 -0.71123,-1.630343 -1.63035,-1.630343 -0.97383,0 -1.70693,0.678398 -1.70693,1.663169 0,2.002368 2.77924,1.269261 2.77924,2.855836 0,0.68934 -0.43768,1.072306 -1.11607,1.072306 -0.73311,0 -1.06137,-0.536153 -1.07231,-1.225492 h -0.76593 v 0.06565 c 0,1.072306 0.76593,1.849181 1.83824,1.849181 1.12701,0 1.882,-0.678398 1.882,-1.827297 z"
         id="path6221"
         style="fill:#000000;fill-opacity:1;stroke-width:0.999825;stroke-dasharray:none" /><path
         d="m 112.81416,73.750777 v -1.378679 h -0.8097 v 1.378679 z"
         id="path6223"
         style="fill:#000000;fill-opacity:1;stroke-width:0.999825;stroke-dasharray:none" /><path
         d="m 120.56103,71.989131 h -0.84253 c -0.41579,0.798759 -1.22549,1.214551 -2.11178,1.214551 -1.38962,0 -2.47287,-1.072306 -2.47287,-2.461927 0,-1.37868 1.10513,-2.440044 2.47287,-2.440044 0.89723,0 1.69599,0.481444 2.11178,1.26926 h 0.84253 c -0.49239,-1.225492 -1.67411,-1.9586 -2.9762,-1.9586 -1.7507,0 -3.21692,1.389622 -3.21692,3.151268 0,1.783529 1.45528,3.129383 3.21692,3.129383 1.38962,0 2.36345,-0.700282 2.9762,-1.903891 z"
         id="path6225"
         style="fill:#000000;fill-opacity:1;stroke-width:0.999825;stroke-dasharray:none" /><path
         d="m 127.71703,70.752697 c 0,-1.706937 -1.43339,-3.140326 -3.14033,-3.140326 -1.73976,0 -3.11844,1.455273 -3.11844,3.184093 0,1.685053 1.43339,3.096558 3.11844,3.096558 1.71788,0 3.14033,-1.422447 3.14033,-3.140325 z m -0.76593,-0.03283 c 0,1.345854 -0.98477,2.483811 -2.36345,2.483811 -1.32397,0 -2.36345,-1.116073 -2.36345,-2.41816 0,-1.32397 1.00665,-2.483811 2.36345,-2.483811 1.31302,0 2.36345,1.116074 2.36345,2.41816 z"
         id="path6227"
         style="fill:#000000;fill-opacity:1;stroke-width:0.999825;stroke-dasharray:none" /><path
         d="M 137.70699,73.750777 V 70.19466 c 0,-1.466215 -0.86441,-2.582289 -2.39628,-2.582289 -0.87535,0 -1.55375,0.415793 -2.01331,1.1489 -0.41579,-0.744049 -1.15984,-1.1489 -2.01331,-1.1489 -0.65651,0 -1.26926,0.273548 -1.63034,0.842527 v -0.68934 h -0.76594 v 5.985219 h 0.76594 v -3.468582 c 0,-1.061364 0.44862,-1.980484 1.63034,-1.980484 1.18173,0 1.63034,0.91912 1.63034,1.980484 v 3.468582 h 0.76594 v -3.468582 c 0,-1.061364 0.44862,-1.980484 1.63034,-1.980484 1.18173,0 1.63034,0.91912 1.63034,1.980484 v 3.468582 z"
         id="path6229"
         style="fill:#000000;fill-opacity:1;stroke-width:0.999825;stroke-dasharray:none" /></g><text
       xml:space="preserve"
       id="text10736"
       style="font-style:normal;font-variant:normal;font-weight:normal;font-stretch:normal;font-size:10.6667px;font-family:'URW Gothic';-inkscape-font-specification:'URW Gothic';white-space:pre;shape-inside:url(#rect10738);display:inline;fill:#ffffff;fill-opacity:0.870016" /><text
       xml:space="preserve"
       id="text15836"
       style="font-style:normal;font-variant:normal;font-weight:normal;font-stretch:normal;font-size:10.6667px;font-family:'URW Gothic';-inkscape-font-specification:'URW Gothic';white-space:pre;shape-inside:url(#rect15838);display:inline;fill:#ffffff;fill-opacity:0.870016" /></g><g
     inkscape:groupmode="layer"
     id="layer2"
     inkscape:label="Layer 2"><g
       id="g2823"
       style="display:inline;fill:#000000;fill-opacity:1;stroke:none"
       transform="matrix(0.0850287,0,0,0.08623223,37.787466,122.82091)"
       inkscape:transform-center-x="-0.17753624"
       inkscape:transform-center-y="0.84250899"><path
         style="opacity:1;fill:#000000;fill-opacity:1;stroke:none;stroke-width:0.2;stroke-dasharray:none;stroke-opacity:1"
         d="m 373.88557,423.15006 c 0,0 -44.95549,-229.58448 126.08156,-422.99077772 C 673.55138,198.82953 625.78672,422.72117 625.78672,422.72117 Z"
         id="path204"
         sodipodi:nodetypes="cccc" /><path
         style="opacity:1;fill:#000000;fill-opacity:1;stroke:none;stroke-width:0.2;stroke-dasharray:none;stroke-opacity:1"
         d="m 651.26146,422.48469 c 0,0 102.89286,-190.65904 348.7199,-225.49409 1.93764,129.4388 -53.04107,225.68308 -53.04107,225.68308 z"
         id="path1033"
         sodipodi:nodetypes="cccc" /><path
         style="opacity:1;fill:#000000;fill-opacity:1;stroke:none;stroke-width:0.2;stroke-dasharray:none;stroke-opacity:1"
         d="m 52.533416,422.81121 c 0,0 -53.36952491,-99.20121 -52.42928463,-225.92991 C 242.3091,231.31919 349.0516,422.61524 349.0516,422.61524 Z"
         id="path1761"
         sodipodi:nodetypes="cccc" /><path
         style="opacity:1;fill:#000000;fill-opacity:1;stroke:none;stroke-width:0.2;stroke-dasharray:none;stroke-opacity:1"
         d="m 74.044696,460.95782 851.832104,0.31379 c -12.28923,21.93117 -25.21685,37.55237 -25.21685,37.55237 L 99.35351,498.68408 C 81.151344,473.90562 74.044696,460.95782 74.044696,460.95782 Z"
         id="path1765"
         sodipodi:nodetypes="ccccc" /><path
         style="opacity:1;fill:#000000;fill-opacity:1;stroke:none;stroke-width:0.2;stroke-dasharray:none;stroke-opacity:1"
         d="m 130.7251,536.90195 739.20892,0.11315 c -14.67625,17.39103 -38.22023,37.73492 -38.22023,37.73492 l -662.94074,0.21844 C 139.79273,549.28737 130.7251,536.90195 130.7251,536.90195 Z"
         id="path1767"
         sodipodi:nodetypes="ccccc" /><path
         style="opacity:1;fill:#000000;fill-opacity:1;stroke:none;stroke-width:0.2;stroke-dasharray:none;stroke-opacity:1"
         d="m 218.56882,613.12251 202.65211,-0.0636 c 9.1486,50.09134 7.14325,82.66502 7.14325,82.66502 -120.18985,-16.09129 -209.79536,-82.6014 -209.79536,-82.6014 z"
         id="path1769"
         sodipodi:nodetypes="cccc" /><path
         style="opacity:1;fill:#000000;fill-opacity:1;stroke:none;stroke-width:0.2;stroke-dasharray:none;stroke-opacity:1"
         d="m 437.42217,613.08755 125.11914,0.0675 c -28.7225,54.44778 -62.34937,89.86777 -62.34937,89.86777 -35.59135,-40.93157 -62.76977,-89.93526 -62.76977,-89.93526 z"
         id="path1773"
         sodipodi:nodetypes="cccc" /><path
         style="opacity:1;fill:#000000;fill-opacity:1;stroke:none;stroke-width:0.2;stroke-dasharray:none;stroke-opacity:1"
         d="m 578.34534,612.98308 203.66493,-0.0397 c -100.1032,71.3918 -210.51303,83.21993 -210.51303,83.21993 0.12333,-42.92824 6.8481,-83.18027 6.8481,-83.18027 z"
         id="path1777"
         sodipodi:nodetypes="cccc" /><path
         id="path1839"
         style="opacity:1;fill:#000000;fill-opacity:1;stroke:none;stroke-width:1;stroke-dasharray:none;stroke-opacity:1"
         d="M 87.708984,811.10938 A 87.279854,87.279854 0 0 0 0.42773438,898.39062 87.279854,87.279854 0 0 0 87.708984,985.66992 87.279854,87.279854 0 0 0 137.80859,969.63477 v 13.31835 h 41.92188 V 813.49023 h -41.92188 v 13.46289 A 87.279854,87.279854 0 0 0 87.708984,811.10938 Z m 1.832032,38.36328 A 48.776325,48.776325 0 0 1 138.31641,898.25 48.776325,48.776325 0 0 1 89.541016,947.02539 48.776325,48.776325 0 0 1 40.763672,898.25 48.776325,48.776325 0 0 1 89.541016,849.47266 Z" /><path
         id="path1839-7"
         style="opacity:1;fill:#000000;fill-opacity:1;stroke:none;stroke-width:1;stroke-dasharray:none;stroke-opacity:1"
         d="m 740.82504,810.95307 a 87.279854,87.279854 0 0 0 -87.28125,87.28124 87.279854,87.279854 0 0 0 87.28125,87.2793 87.279854,87.279854 0 0 0 50.0996,-16.03515 v 13.31835 h 41.92188 V 813.33392 h -41.92188 v 13.46289 a 87.279854,87.279854 0 0 0 -50.0996,-15.84374 z m 1.83203,38.36328 a 48.776325,48.776325 0 0 1 48.77539,48.77734 48.776325,48.776325 0 0 1 -48.77539,48.77539 48.776325,48.776325 0 0 1 -48.77734,-48.77539 48.776325,48.776325 0 0 1 48.77734,-48.77734 z" /><path
         id="path1954"
         style="opacity:1;fill:#000000;fill-opacity:1;stroke:none;stroke-width:0.342269;stroke-dasharray:none;stroke-opacity:1"
         d="m 334.30273,755.61719 v 71.20703 a 87.670547,87.670547 0 0 0 -50.21679,-15.83984 87.670547,87.670547 0 0 0 -87.67188,87.66992 87.670547,87.670547 0 0 0 87.67188,87.67187 87.670547,87.670547 0 0 0 50.21679,-16.02734 v 12.81055 h 42.52149 V 755.61719 Z m -48.11328,94.92578 a 48.208324,48.208324 0 0 1 48.20899,48.20898 48.208324,48.208324 0 0 1 -48.20899,48.20899 48.208324,48.208324 0 0 1 -48.20703,-48.20899 48.208324,48.208324 0 0 1 48.20703,-48.20898 z" /><path
         id="path1954-6"
         style="opacity:1;fill:#000000;fill-opacity:1;stroke:none;stroke-width:0.342269;stroke-dasharray:none;stroke-opacity:1"
         d="m 593.99359,755.48812 v 71.20703 a 87.670547,87.670547 0 0 0 -50.21679,-15.83984 87.670547,87.670547 0 0 0 -87.67188,87.66992 87.670547,87.670547 0 0 0 87.67188,87.67187 87.670547,87.670547 0 0 0 50.21679,-16.02734 v 12.81055 h 42.52149 V 755.48812 Z m -48.11328,94.92578 a 48.208324,48.208324 0 0 1 48.20899,48.20898 48.208324,48.208324 0 0 1 -48.20899,48.20899 48.208324,48.208324 0 0 1 -48.20703,-48.20899 48.208324,48.208324 0 0 1 48.20703,-48.20898 z" /><path
         id="rect1992"
         style="opacity:1;fill:#000000;fill-opacity:1;stroke:none;stroke-width:0.4;stroke-dasharray:none;stroke-opacity:1"
         d="m 396.48828,755.3457 v 42.54688 H 439.0332 V 755.3457 Z m -0.38476,57.42774 v 169.43164 h 43.17187 V 812.77344 Z" /><path
         style="opacity:1;fill:#000000;fill-opacity:1;stroke:none;stroke-width:0.4;stroke-dasharray:none;stroke-opacity:1"
         d="m 993.83536,865.96936 c 0,0 -26.71684,0.0208 -42.5075,0.009 -1.6326,-17.95504 -17.56402,-23.21012 -30.17105,-23.21914 -10.51903,-0.008 -25.9803,2.76696 -25.93423,15.23936 0.0331,8.95059 4.0158,14.45954 33.72986,18.99225 43.2966,6.60464 71.09086,16.10793 71.26426,52.2978 0.1162,24.25526 -16.39831,56.5324 -71.43249,56.36166 -7.8026,-0.0242 -79.01758,0.33343 -80.25964,-58.64262 14.42993,-0.28067 29.20018,-0.2098 42.98955,-0.0234 2.37251,22.52047 21.70953,26.88839 37.29113,26.91648 14.17187,0.0255 26.25979,-6.47379 26.28232,-16.91045 0.0236,-10.9095 -12.70605,-16.17968 -26.21414,-17.43131 -7.4901,-0.69402 -35.41368,-5.53194 -46.87317,-9.70912 -16.30476,-5.94337 -30.504,-16.77937 -30.39529,-44.9585 0.083,-21.52425 19.49444,-54.1667 69.76754,-54.38368 59.1268,-0.25519 72.42987,41.93649 72.46285,55.46203 0.0366,15.02104 0,2e-5 0,2e-5 z"
         id="path2805"
         sodipodi:nodetypes="ccsssssccsssssssc" /></g><text
       xml:space="preserve"
       id="text4548"
       style="white-space:pre;shape-inside:url(#rect4550);display:inline;fill:#ffffff;fill-opacity:0.316546" /></g><g
     inkscape:groupmode="layer"
     inkscape:label="Printing Marks"
     id="printing-marks"
     sodipodi:insensitive="true"><g
       id="CropMarks"
       inkscape:label="CropMarks"><path
         style="fill:none;stroke:#000000;stroke-width:0.25"
         id="cropTL1"
         d="M 18.897638,1.0526315818992771e-07 L 18.897638,-37.79527568421052" /><path
         style="fill:none;stroke:#000000;stroke-width:0.25"
         id="cropTL2"
         d="M 1.0526315818992771e-07,18.897638 L -37.79527568421052,18.897638" /><path
         style="fill:none;stroke:#000000;stroke-width:0.25"
         id="cropTR1"
         d="M 340.15749800000003,1.0526315818992771e-07 L 340.15749800000003,-37.79527568421052" /><path
         style="fill:none;stroke:#000000;stroke-width:0.25"
         id="cropTR2"
         d="M 359.05513589473685,18.897638 L 396.85041168421054,18.897638" /><path
         style="fill:none;stroke:#000000;stroke-width:0.25"
         id="cropBL1"
         d="M 18.897638,245.66929589473685 L 18.897638,283.4645716842105" /><path
         style="fill:none;stroke:#000000;stroke-width:0.25"
         id="cropBL2"
         d="M 1.0526315818992771e-07,226.771658 L -37.79527568421052,226.771658" /><path
         style="fill:none;stroke:#000000;stroke-width:0.25"
         id="cropBR1"
         d="M 340.15749800000003,245.66929589473685 L 340.15749800000003,283.4645716842105" /><path
         style="fill:none;stroke:#000000;stroke-width:0.25"
         id="cropBR2"
         d="M 359.05513589473685,226.771658 L 396.85041168421054,226.771658" /></g><g
       inkscape:label="BleedMarks"
       id="BleedMarks"><path
         style="fill:none;stroke:#000000;stroke-dasharray:4, 2, 1, 2;stroke-dashoffset:0;stroke-miterlimit:4;stroke-width:0.25"
         id="bleedTL1"
         d="M 1.0526315818992771e-07,1.0526315818992771e-07 L 1.0526315818992771e-07,-37.79527568421052" /><path
         style="fill:none;stroke:#000000;stroke-dasharray:4, 2, 1, 2;stroke-dashoffset:0;stroke-miterlimit:4;stroke-width:0.25"
         id="bleedTL2"
         d="M 1.0526315818992771e-07,1.0526315818992771e-07 L -37.79527568421052,1.0526315818992771e-07" /><path
         style="fill:none;stroke:#000000;stroke-dasharray:4, 2, 1, 2;stroke-dashoffset:0;stroke-miterlimit:4;stroke-width:0.25"
         id="bleedTR1"
         d="M 359.05513589473685,1.0526315818992771e-07 L 359.05513589473685,-37.79527568421052" /><path
         style="fill:none;stroke:#000000;stroke-dasharray:4, 2, 1, 2;stroke-dashoffset:0;stroke-miterlimit:4;stroke-width:0.25"
         id="bleedTR2"
         d="M 359.05513589473685,1.0526315818992771e-07 L 396.85041168421054,1.0526315818992771e-07" /><path
         style="fill:none;stroke:#000000;stroke-dasharray:4, 2, 1, 2;stroke-dashoffset:0;stroke-miterlimit:4;stroke-width:0.25"
         id="bleedBL1"
         d="M 1.0526315818992771e-07,245.66929589473685 L 1.0526315818992771e-07,283.4645716842105" /><path
         style="fill:none;stroke:#000000;stroke-dasharray:4, 2, 1, 2;stroke-dashoffset:0;stroke-miterlimit:4;stroke-width:0.25"
         id="bleedBL2"
         d="M 1.0526315818992771e-07,245.66929589473685 L -37.79527568421052,245.66929589473685" /><path
         style="fill:none;stroke:#000000;stroke-dasharray:4, 2, 1, 2;stroke-dashoffset:0;stroke-miterlimit:4;stroke-width:0.25"
         id="bleedBR1"
         d="M 359.05513589473685,245.66929589473685 L 359.05513589473685,283.4645716842105" /><path
         style="fill:none;stroke:#000000;stroke-dasharray:4, 2, 1, 2;stroke-dashoffset:0;stroke-miterlimit:4;stroke-width:0.25"
         id="bleedBR2"
         d="M 359.05513589473685,245.66929589473685 L 396.85041168421054,245.66929589473685" /></g></g></svg>
